<?xml version="1.0"?>
<svg xmlns="http://www.w3.org/2000/svg" xmlns:xlink="http://www.w3.org/1999/xlink" xmlns:svgjs="http://svgjs.com/svgjs" version="1.1" width="512" height="512" x="0" y="0" viewBox="0 0 512 512" style="enable-background:new 0 0 512 512" xml:space="preserve" class=""><g>
<g xmlns="http://www.w3.org/2000/svg">
	<g>
		<path d="M455.727,29.8h-355.18c-4.155,0-7.523,3.367-7.523,7.523c0,4.156,3.368,7.523,7.523,7.523h355.18    c22.732,0,41.227,18.494,41.227,41.226v61.377h-80.445c-4.155,0-7.523,3.367-7.523,7.523c0,4.156,3.368,7.523,7.523,7.523h80.445    v48.967c0,20.292-14.741,37.194-34.073,40.593v-28.651c0-16.207-13.186-29.394-29.393-29.394H125.992    c-4.155,0-7.523,3.367-7.523,7.523c0,4.156,3.368,7.523,7.523,7.523h307.496c7.91,0,14.346,6.436,14.346,14.347v29.285H64.166    v-29.285c0-7.911,6.436-14.347,14.346-14.347h17.385c4.155,0,7.523-3.367,7.523-7.523c0-4.156-3.368-7.523-7.523-7.523H78.514    c-16.207,0-29.393,13.187-29.393,29.394v28.651c-19.334-3.398-34.074-20.301-34.074-40.593v-48.967h371.369    c4.155,0,7.523-3.367,7.523-7.523c0-4.156-3.368-7.523-7.523-7.523H15.047V86.073c0-22.732,18.494-41.226,41.227-41.226h14.181    c4.155,0,7.523-3.367,7.523-7.523c0-4.156-3.368-7.523-7.523-7.523H56.273C25.244,29.8,0,55.045,0,86.073v125.391    c0,31.029,25.244,56.273,56.273,56.273h399.454c31.029,0,56.273-25.244,56.273-56.273V86.073    C512,55.045,486.756,29.8,455.727,29.8z" fill="#2c3f58" data-original="#000000" style="" class=""/>
	</g>
</g>
<g xmlns="http://www.w3.org/2000/svg">
	<g>
		<circle cx="420.51" cy="81.169" r="11.034" fill="#2c3f58" data-original="#000000" style="" class=""/>
	</g>
</g>
<g xmlns="http://www.w3.org/2000/svg">
	<g>
		<circle cx="457.284" cy="81.169" r="11.034" fill="#2c3f58" data-original="#000000" style="" class=""/>
	</g>
</g>
<g xmlns="http://www.w3.org/2000/svg">
	<g>
		<path d="M178.869,281.364c-4.155,0-7.523,3.367-7.523,7.523v47.569c0,4.156,3.368,7.523,7.523,7.523s7.523-3.368,7.523-7.523    v-47.569C186.392,284.731,183.024,281.364,178.869,281.364z" fill="#2c3f58" data-original="#000000" style="" class=""/>
	</g>
</g>
<g xmlns="http://www.w3.org/2000/svg">
	<g>
		<path d="M256.108,281.364c-4.155,0-7.523,3.367-7.523,7.523v47.569c0,4.155,3.368,7.523,7.523,7.523s7.523-3.367,7.523-7.523    v-47.569C263.631,284.731,260.263,281.364,256.108,281.364z" fill="#2c3f58" data-original="#000000" style="" class=""/>
	</g>
</g>
<g xmlns="http://www.w3.org/2000/svg">
	<g>
		<path d="M335.363,281.364c-4.155,0-7.523,3.367-7.523,7.523v47.569c0,4.156,3.368,7.523,7.523,7.523s7.523-3.368,7.523-7.523    v-47.569C342.886,284.731,339.518,281.364,335.363,281.364z" fill="#2c3f58" data-original="#000000" style="" class=""/>
	</g>
</g>
<g xmlns="http://www.w3.org/2000/svg">
	<g>
		<path d="M217.296,281.364c-4.155,0-7.523,3.367-7.523,7.523v69.089c0,12.465-10.139,22.604-22.604,22.604h-12.006    c-4.155,0-7.523,3.367-7.523,7.523c0,4.156,3.368,7.523,7.523,7.523h12.006c20.76,0,37.65-16.89,37.65-37.65v-69.089    C224.819,284.731,221.451,281.364,217.296,281.364z" fill="#2c3f58" data-original="#000000" style="" class=""/>
	</g>
</g>
<g xmlns="http://www.w3.org/2000/svg">
	<g>
		<path d="M336.836,380.58H324.83c-12.464,0-22.604-10.139-22.604-22.604v-69.089c0-4.156-3.368-7.523-7.523-7.523    s-7.523,3.367-7.523,7.523v69.089c0,20.76,16.889,37.65,37.65,37.65h12.006c4.155,0,7.523-3.367,7.523-7.523    C344.36,383.947,340.992,380.58,336.836,380.58z" fill="#2c3f58" data-original="#000000" style="" class=""/>
	</g>
</g>
<g xmlns="http://www.w3.org/2000/svg">
	<g>
		<path d="M138.805,353.421c0-4.156-3.369-7.524-7.524-7.524h-7.248l5.125-5.125c2.938-2.939,2.938-7.702,0-10.64    c-2.938-2.937-7.702-2.937-10.639,0l-5.126,5.126v-7.248c0-4.156-3.368-7.523-7.523-7.523s-7.523,3.367-7.523,7.523v7.249    l-5.126-5.126c-2.938-2.937-7.702-2.937-10.639,0c-2.938,2.939-2.938,7.702,0,10.64l5.125,5.125h-7.248    c-4.155,0-7.523,3.367-7.523,7.523c0,4.156,3.368,7.523,7.523,7.523h7.249l-5.126,5.126c-4.753,4.754-1.323,12.844,5.319,12.844    c4.763,0,6.37-3.823,10.446-7.33v7.249c0,4.156,3.368,7.523,7.523,7.523c4.155,0,7.523-3.367,7.523-7.523v-7.248    c4.039,3.475,5.682,7.329,10.445,7.329c6.643,0,10.073-8.089,5.319-12.844l-5.126-5.126h7.249    C135.437,360.944,138.805,357.576,138.805,353.421z" fill="#2c3f58" data-original="#000000" style="" class=""/>
	</g>
</g>
<g xmlns="http://www.w3.org/2000/svg">
	<g>
		<path d="M288.937,449.264c0-4.156-3.37-7.523-7.525-7.523h-7.248l5.125-5.125c2.938-2.939,2.938-7.702,0-10.64    c-2.938-2.937-7.702-2.937-10.639,0l-5.126,5.126v-7.249c0-4.156-3.368-7.523-7.523-7.523s-7.523,3.367-7.523,7.523v7.249    l-5.126-5.126c-2.938-2.937-7.702-2.937-10.639,0c-2.938,2.939-2.938,7.702,0,10.64l5.125,5.125h-7.248    c-4.155,0-7.523,3.367-7.523,7.523c0,4.156,3.368,7.523,7.523,7.523h7.249l-5.126,5.126c-4.753,4.754-1.323,12.844,5.319,12.844    c4.763,0,6.37-3.823,10.446-7.33v7.249c0,4.156,3.368,7.523,7.523,7.523s7.523-3.367,7.523-7.523v-7.249    c4.045,3.479,5.683,7.33,10.446,7.33c6.643,0,10.073-8.089,5.319-12.844l-5.126-5.126h7.249    C285.569,456.787,288.937,453.42,288.937,449.264z" fill="#2c3f58" data-original="#000000" style="" class=""/>
	</g>
</g>
<g xmlns="http://www.w3.org/2000/svg">
	<g>
		<path d="M451.773,367.011c0-4.156-3.369-7.524-7.524-7.524H437l5.125-5.125c2.938-2.939,2.938-7.702,0-10.64    c-2.938-2.937-7.702-2.937-10.639,0l-5.126,5.126v-7.248c0-4.156-3.368-7.523-7.523-7.523s-7.523,3.367-7.523,7.523v7.249    l-5.126-5.126c-2.938-2.937-7.702-2.937-10.639,0c-2.938,2.939-2.938,7.702,0,10.64l5.125,5.125h-7.248    c-4.155,0-7.523,3.367-7.523,7.523c0,4.156,3.368,7.523,7.523,7.523h7.249l-5.126,5.126c-4.753,4.754-1.323,12.844,5.319,12.844    c4.763,0,6.37-3.823,10.446-7.33v7.249c0,4.156,3.368,7.523,7.523,7.523s7.523-3.367,7.523-7.523v-7.248    c4.039,3.475,5.682,7.329,10.445,7.329c6.643,0,10.073-8.089,5.319-12.844L437,374.534h7.249    C448.404,374.534,451.773,371.167,451.773,367.011z" fill="#2c3f58" data-original="#000000" style="" class=""/>
	</g>
</g>
<g xmlns="http://www.w3.org/2000/svg">
</g>
<g xmlns="http://www.w3.org/2000/svg">
</g>
<g xmlns="http://www.w3.org/2000/svg">
</g>
<g xmlns="http://www.w3.org/2000/svg">
</g>
<g xmlns="http://www.w3.org/2000/svg">
</g>
<g xmlns="http://www.w3.org/2000/svg">
</g>
<g xmlns="http://www.w3.org/2000/svg">
</g>
<g xmlns="http://www.w3.org/2000/svg">
</g>
<g xmlns="http://www.w3.org/2000/svg">
</g>
<g xmlns="http://www.w3.org/2000/svg">
</g>
<g xmlns="http://www.w3.org/2000/svg">
</g>
<g xmlns="http://www.w3.org/2000/svg">
</g>
<g xmlns="http://www.w3.org/2000/svg">
</g>
<g xmlns="http://www.w3.org/2000/svg">
</g>
<g xmlns="http://www.w3.org/2000/svg">
</g>
</g></svg>
