<?xml version="1.0" encoding="utf-8"?>
<!-- Generator: Adobe Illustrator 24.0.1, SVG Export Plug-In . SVG Version: 6.00 Build 0)  -->
<svg version="1.1" id="Capa_1" xmlns="http://www.w3.org/2000/svg" xmlns:xlink="http://www.w3.org/1999/xlink" x="0px" y="0px"
	 viewBox="0 0 222.5 222.5" style="enable-background:new 0 0 222.5 222.5;" xml:space="preserve">
<style type="text/css">
	.st0{fill:#2C3F58;}
</style>
<path class="st0" d="M222.5,179.2v5c0,4.1-3.4,7.5-7.5,7.5H7.5c-4.1,0-7.5-3.4-7.5-7.5v-5c0-4.1,3.4-7.5,7.5-7.5H215
	C219.1,171.7,222.5,175.1,222.5,179.2z M215.8,155.4c0,4.1-3.4,7.5-7.5,7.5h-194c-4.1,0-7.5-3.4-7.5-7.5
	c0-52.3,38.5-95.7,88.7-103.3c-0.5-1.5-0.7-3.1-0.7-4.7c0-9.1,7.4-16.5,16.5-16.5s16.5,7.4,16.5,16.5c0,1.6-0.2,3.2-0.7,4.7
	C177.2,59.7,215.8,103.1,215.8,155.4z M103.6,73.5c-1-4-5.1-6.4-9.1-5.4c-1.2,0.3-29.4,7.6-47.6,29.1c-15.4,18.3-17.4,41.1-17.5,42
	c-0.3,4.1,2.8,7.7,6.9,8.1c0.2,0,0.4,0,0.6,0c3.9,0,7.2-3,7.5-6.9c0-0.2,1.6-18.9,14-33.5c15-17.7,39.4-24.2,39.8-24.3
	C102.1,81.6,104.6,77.6,103.6,73.5z"/>
</svg>
