<?xml version="1.0"?>
<svg xmlns="http://www.w3.org/2000/svg" xmlns:xlink="http://www.w3.org/1999/xlink" xmlns:svgjs="http://svgjs.com/svgjs" version="1.1" width="512" height="512" x="0" y="0" viewBox="0 0 682.66752 682" style="enable-background:new 0 0 512 512" xml:space="preserve" class=""><g><path xmlns="http://www.w3.org/2000/svg" d="m631.976562 331.097656c-2.679687-11.136718-12.242187-19.03125-23.535156-19.6875l-53.804687-190.5625c-8.558594-33.085937-31.394531-59.976562-62.660157-73.789062l-51.566406-22.773438c-4.574218-8.585937-12.546875-14.84375-22.011718-17.222656 0 0-28.589844-7.1875-28.609376-7.191406-1.722656-.429688-3.152343-.894532-4.980468-.621094 0 0-129.855469 0-129.953125 0-1.480469 0-2.878907.007812-4.277344.53125l-28.960937 7.28125c-9.464844 2.378906-17.4375 8.640625-22.015626 17.226562l-51.5625 22.769532c-31.261718 13.808594-54.089843 40.691406-62.652343 73.769531l-54.804688 190.652344c-10.859375 1.042969-19.941406 8.8125-22.542969 19.617187l-7.320312 30.429688c-3.324219 13.820312 5.214844 27.769531 19.03125 31.09375l101.746094 24.480468c13.691406 3.292969 27.796875-5.351562 31.09375-19.035156l7.316406-30.429687c2.476562-10.273438-1.621094-20.609375-9.558594-26.609375l22.777344-94.050782c2.425781 13.097657 5.429688 23.789063 8.988281 32.023438-5.15625 4.097656-8.445312 10.574219-8.445312 18.023438v21.6875c0 8.085937 4.273437 15.171874 10.667969 19.171874-8.402344 25.675782-30.546876 101.824219-31.757813 193.976563-11.324219 3.820313-19.921875 14.230469-19.921875 25.773437v19.964844c0 15.058594 12.257812 27.316406 27.320312 27.316406h220.257813c5.175781 0 9.375-4.199218 9.375-9.375 0-5.175781-4.199219-9.375-9.375-9.375h-220.257813c-4.722656 0-8.566406-3.84375-8.566406-8.566406v-19.964844c0-4.25 5.289063-8.570312 10.484375-8.570312h316.222657c5.191406 0 10.484374 4.320312 10.484374 8.570312v19.964844c0 4.722656-3.839843 8.566406-8.566406 8.566406h-62.300781c-5.179687 0-9.375 4.199219-9.375 9.375 0 5.175782 4.195313 9.375 9.375 9.375h62.300781c15.0625 0 27.316406-12.257812 27.316406-27.316406v-19.964844c0-11.542968-8.59375-21.953124-19.921874-25.773437-1.203126-92.148437-23.351563-168.292969-31.753907-193.976563 6.398438-4 10.675781-11.085937 10.675781-19.171874v-21.695313c0-7.441406-3.289062-13.917969-8.449218-18.015625 3.484375-8.070312 6.445312-18.5 8.839844-31.242188l22.148437 93.886719c-2.222656 1.816407-4.160156 3.992188-5.703125 6.503907-3.59375 5.875-4.6875 12.792968-3.074219 19.488281 0 0 7.3125 30.40625 7.316407 30.429687 3.277343 13.609375 17.496093 22.304688 31.09375 19.035156 0 0 101.65625-24.460937 101.746093-24.484374 13.660157-3.285157 22.324219-17.425782 19.03125-31.089844zm-208.125-297.570312c2.003907 3.972656 2.453126 8.734375.695313 13.003906-14.359375 34.914062-35.15625 67.210938-60.546875 95.121094-4.078125-2.816406-8.070312-5.746094-11.972656-8.785156-.015625-.007813-.035156-.023438-.050782-.035157-6.347656-4.941406-18.601562-15.910156-18.753906-16.054687 1.835938-1.980469 3.644532-3.996094 5.425782-6.039063 23.152343-26.507812 42.144531-57.574219 53.757812-90.875 0 0 21.394531 5.378907 21.421875 5.386719 4.46875 1.125 8.023437 4.308594 10.023437 8.277344zm-139.808593 20.769531c-6.660157-11.625-12.429688-23.753906-17.152344-36.296875h106.234375c-2.292969 6.097656-5.679688 14.222656-10.386719 23.589844-11.28125 22.449218-25.707031 43.339844-42.722656 61.828125-4.742187-5.140625-9.28125-10.492188-13.628906-16.023438-8.222657-10.472656-15.722657-21.535156-22.34375-33.097656zm-57.855469-29.046875 21.414062-5.386719c2.988282 8.566407 8.554688 22.589844 17.707032 39.253907 23.492187 42.773437 58.347656 80.019531 100.136718 105.917968 17.730469 10.992188 28.695313 30.738282 28.695313 51.585938v57.785156h-39.527344v-57.785156c0-14.3125-14.03125-20.261719-24.085937-27.242188-68.140625-47.273437-101.128906-108.980468-115.0625-142.855468-3.597656-8.75 1.570312-18.976563 10.722656-21.273438zm-84.511719 338.003906s-7.304687 30.375-7.320312 30.429688c-.898438 3.722656-4.761719 6.078125-8.476563 5.183594l-101.742187-24.476563c-3.769531-.910156-6.09375-4.710937-5.191407-8.476563 0 0 7.308594-30.355468 7.324219-30.429687.894531-3.722656 4.761719-6.078125 8.472657-5.1875 0 0 101.597656 24.445313 101.628906 24.453125 3.761718.90625 6.222656 4.699219 5.304687 8.503906zm25.875-172.886718-34.933593 144.195312-83.394532-20.066406 54.21875-188.617188c.027344-.082031.050782-.164062.070313-.246094 7.09375-27.539062 26.089843-49.929687 52.105469-61.421874l40.402343-17.84375c.324219 1.867187.800781 3.71875 1.4375 5.535156.203125.589844.429688 1.175781.667969 1.761718 3.929688 9.554688 9.296875 21.207032 16.417969 34.101563 20.472656 37.074219 55.457031 84.453125 112.625 121.972656 2.121093 1.390625 8.695312 3.917969 8.695312 6.886719v57.78125h-56.882812c-5.179688 0-9.378907 4.199219-9.378907 9.375 0 5.179688 4.199219 9.375 9.378907 9.375h165.726562c2.753907 0 2.894531 3.222656 2.894531 3.867188v21.6875c0 2.132812-1.738281 3.867187-3.871093 3.867187h-247.449219c-2.136719 0-3.867188-1.734375-3.867188-3.867187v-21.6875c0-.644532.140626-3.867188 2.890626-3.867188h46.171874c5.179688 0 9.375-4.195312 9.375-9.375 0-5.175781-4.195312-9.375-9.375-9.375h-40.867187c-10.253906-20.050781-13.996094-65.28125-14.582031-82.15625-.164063-4.679688-3.757813-8.527344-8.417969-9.003906-4.667969-.480469-8.960937 2.566406-10.058594 7.121094zm35.421875 150.960937h132.890625v188.984375h-164.515625c1.507813-91 24.484375-167.351562 31.625-188.984375zm151.640625 188.984375v-188.984375h39.527344v188.984375zm58.277344 0v-188.984375h24.144531c7.144532 21.632813 30.117188 97.984375 31.628906 188.984375zm50.472656-347.113281c-4.988281 0-9.203125 4.0625-9.378906 9.050781-.574219 16.871094-4.3125 62.089844-14.578125 82.15625h-26.515625s0-57.773438 0-57.785156c0-24.726563-11.9375-48.691406-31.714844-63.519532-.34375-.257812-1.066406-.601562-1.269531-1 .171875-.46875.75-.917968 1.082031-1.292968 15.101563-17.117188 28.605469-35.59375 40.140625-55.300782 6.078125-10.390624 11.609375-21.097656 16.546875-32.074218 2.484375-5.53125 5.277344-11.035156 6.320313-17.066406l40.402344 17.847656c26.015624 11.488281 45.011718 33.878906 52.105468 61.417968.019532.070313.039063.140626.058594.207032l53.328125 188.878906-83.359375 20.050781-34.050781-144.347656c-1.003907-4.269531-4.8125-7.222656-9.117188-7.222656zm156.847657 188.015625c-.945313 1.539062-2.46875 2.726562-4.328126 3.175781l-101.746093 24.476563c-3.726563.898437-7.578125-1.445313-8.472657-5.183594 0 0-7.308593-30.371094-7.324218-30.429688-.894532-3.726562 1.464844-7.574218 5.191406-8.472656 0 0 100.222656-24.117188 100.222656-24.117188 4.230469-1.015624 8.828125-.039062 9.996094 4.820313 0 0 7.304688 30.375 7.320312 30.429687.449219 1.871094.082032 3.757813-.859374 5.300782zm0 0" fill="#2c3f58" data-original="#000000" style="" class=""/></g></svg>
