<?xml version="1.0"?>
<svg xmlns="http://www.w3.org/2000/svg" xmlns:xlink="http://www.w3.org/1999/xlink" xmlns:svgjs="http://svgjs.com/svgjs" version="1.1" width="512" height="512" x="0" y="0" viewBox="0 0 64 64" style="enable-background:new 0 0 512 512" xml:space="preserve" class=""><g><path xmlns="http://www.w3.org/2000/svg" d="m61.5 13c-3.584 0-6.5 2.916-6.5 6.5v36.5c0 2.757-2.243 5-5 5s-5-2.243-5-5v-.265c4.925-4.734 8-11.38 8-18.735 0-7.302-3.022-13.993-8-18.768v-10.732c0-3.584-2.916-6.5-6.5-6.5s-6.5 2.916-6.5 6.5v2.684c-.314-.112-.648-.184-1-.184-.771 0-1.468.301-2 .78-.532-.48-1.229-.78-2-.78s-1.468.301-2 .78c-.532-.48-1.229-.78-2-.78-1.27 0-2.352.797-2.789 1.914-11.336 3.057-19.211 13.281-19.211 25.086 0 14.337 11.663 26 26 26 6.093 0 11.699-2.112 16.136-5.635.637 3.208 3.472 5.635 6.864 5.635 3.859 0 7-3.141 7-7v-36.5c0-2.481 2.019-4.5 4.5-4.5h1.5v-2zm-10.5 24c0 4.011-.994 7.792-2.741 11.119l-7.813-4.511c.985-1.997 1.554-4.235 1.554-6.608 0-2.345-.55-4.597-1.542-6.615l7.81-4.509c1.746 3.347 2.732 7.135 2.732 11.124zm-3.73-12.858-7.809 4.508c-1.079-1.61-2.473-3.007-4.115-4.106l4.513-7.816c3.008 1.903 5.53 4.443 7.411 7.414zm-13.27-16.642c0-2.481 2.019-4.5 4.5-4.5s4.5 2.019 4.5 4.5v8.981c-2.615-2.037-5.659-3.575-9-4.506zm0 8.5v-1.943c1.443.438 2.823.995 4.125 1.673l-4.125 7.146zm-4-3c0-.552.448-1 1-1s1 .448 1 1v3 7c0 .552-.448 1-1 1s-1-.448-1-1zm-4 0c0-.552.448-1 1-1s1 .448 1 1v10c0 .552-.448 1-1 1s-1-.448-1-1zm-4 0c0-.552.448-1 1-1s1 .448 1 1v10c0 .552-.448 1-1 1s-1-.448-1-1zm-.81 12.376c.505.386 1.127.624 1.81.624.771 0 1.468-.301 2-.78.532.48 1.229.78 2 .78s1.468-.301 2-.78c.532.48 1.229.78 2 .78.684 0 1.307-.239 1.812-.625 4.388 2.194 7.188 6.674 7.188 11.625 0 7.168-5.832 13-13 13s-13-5.832-13-13c0-4.938 2.805-9.429 7.19-11.624zm-1.19-11.319v8.819l-4.125-7.145c1.302-.679 2.682-1.236 4.125-1.674zm-5.859 2.671 4.513 7.818c-1.64 1.1-3.031 2.498-4.11 4.109l-7.814-4.513c1.881-2.971 4.403-5.511 7.411-7.414zm-11.141 20.272c0-3.989.986-7.777 2.732-11.124l7.814 4.512c-.993 2.02-1.546 4.271-1.546 6.612 0 2.373.569 4.611 1.554 6.608l-7.813 4.511c-1.747-3.327-2.741-7.108-2.741-11.119zm3.745 12.849 7.799-4.503c1.09 1.622 2.488 3.019 4.109 4.109l-4.503 7.799c-2.977-1.895-5.509-4.427-7.405-7.405zm20.255 11.151c-4.011 0-7.792-.994-11.119-2.741l4.511-7.813c1.997.985 4.235 1.554 6.608 1.554s4.611-.569 6.608-1.554l4.511 7.813c-3.327 1.747-7.108 2.741-11.119 2.741zm12.849-3.745-4.503-7.799c1.622-1.09 3.019-2.488 4.109-4.109l7.799 4.503c-1.895 2.977-4.427 5.509-7.405 7.405z" fill="#2c3f58" data-original="#000000" style=""/></g></svg>
