<?xml version="1.0"?>
<svg xmlns="http://www.w3.org/2000/svg" xmlns:xlink="http://www.w3.org/1999/xlink" xmlns:svgjs="http://svgjs.com/svgjs" version="1.1" width="512" height="512" x="0" y="0" viewBox="0 0 512 512" style="enable-background:new 0 0 512 512" xml:space="preserve" class=""><g><g xmlns="http://www.w3.org/2000/svg"><g><g><path d="m433.704 212.962c-22.765-7.584-47.441-1.765-64.398 15.191-11.818 11.819-18.356 27.539-18.411 44.265-.016 5.079 3.777 9.364 8.821 9.962l9.739 1.156 1.156 9.739c.597 5.033 4.865 8.822 9.93 8.821h.032c16.727-.053 32.447-6.592 44.266-18.411 16.956-16.956 22.777-41.631 15.191-64.398-.996-2.986-3.34-5.329-6.326-6.325zm-23.007 56.582c-5.943 5.943-13.334 9.928-21.382 11.625l-.927-7.807c-.002-.021-.005-.041-.007-.062-.56-4.475-4.051-8.029-8.516-8.667-.078-.011-.157-.021-.235-.031l-7.807-.927c1.697-8.048 5.682-15.439 11.625-21.382 10.336-10.337 24.883-14.607 38.949-11.7 2.906 14.068-1.363 28.615-11.7 38.951z" fill="#2c3f58" data-original="#000000" style="" class=""/><circle cx="502" cy="292.004" r="10" fill="#2c3f58" data-original="#000000" style="" class=""/><path d="m502 72.133h-132.133c-2.989-5.965-6.933-11.48-11.784-16.331-16.956-16.956-41.633-22.777-64.397-15.19-2.987.995-5.331 3.339-6.326 6.326-2.766 8.3-3.741 16.854-3.053 25.195h-86.641v-38.133c0-18.748-15.252-34-34-34h-105.666c-31.981 0-58 26.019-58 58v395.867c0 .015.002.03.002.044 0 .03-.002.059-.002.089 0 31.981 26.019 58 58 58h444c5.523 0 10-4.477 10-10v-165c0-5.523-4.477-10-10-10s-10 4.477-10 10v155h-434c-20.953 0-38-17.047-38-38s17.047-38 38-38h105.667c7.72 0 14 6.28 14 14s-6.28 14-14 14h-100.851c-5.523 0-10 4.477-10 10s4.477 10 10 10h100.851c18.748 0 34-15.252 34-34 0-.03-.002-.059-.002-.088 0-.015.002-.029.002-.044v-57.91c11.697 11.196 26.992 17.388 43.248 17.441h.033c5.064 0 9.333-3.789 9.93-8.821l1.156-9.739 9.739-1.156c5.044-.599 8.837-4.883 8.821-9.962-.054-16.726-6.592-32.447-18.411-44.266-14.525-14.524-34.713-20.869-54.515-17.624v-205.698h91.719c3.094 7.022 7.505 13.544 13.165 19.204 11.819 11.818 27.539 18.356 44.265 18.411h.033c5.064 0 9.333-3.789 9.93-8.821l1.156-9.739 9.739-1.156c5.044-.599 8.837-4.883 8.821-9.962-.009-2.677-.201-5.323-.537-7.936h116.041v154.866c0 5.523 4.477 10 10 10s10-4.477 10-10v-164.867c0-5.523-4.477-10-10-10zm-302.909 245.763c14.063-2.905 28.611 1.362 38.948 11.699 5.943 5.944 9.928 13.335 11.625 21.383l-7.806.927c-.021.002-.041.005-.062.007-4.475.56-8.029 4.051-8.667 8.516-.011.078-.021.157-.031.235l-.927 7.807c-8.048-1.697-15.439-5.682-21.382-11.625-10.335-10.337-14.604-24.885-11.698-38.949zm-35.424 78.104h-105.667c-14.527 0-27.813 5.381-38 14.238v-352.238c0-20.953 17.047-38 38-38h105.667c7.72 0 14 6.28 14 14v365.029c-4.273-1.94-9.011-3.029-14-3.029zm184.094-303.746c-.021.002-.041.005-.062.007-4.475.56-8.029 4.051-8.667 8.516-.011.078-.021.157-.031.235l-.927 7.807c-8.048-1.697-15.439-5.682-21.382-11.625-10.337-10.337-14.606-24.884-11.7-38.949 14.067-2.906 28.612 1.363 38.949 11.7 5.944 5.943 9.929 13.335 11.625 21.383z" fill="#2c3f58" data-original="#000000" style="" class=""/></g></g></g></g></svg>
