<?xml version="1.0"?>
<svg xmlns="http://www.w3.org/2000/svg" xmlns:xlink="http://www.w3.org/1999/xlink" xmlns:svgjs="http://svgjs.com/svgjs" version="1.1" width="512" height="512" x="0" y="0" viewBox="0 0 512 512" style="enable-background:new 0 0 512 512" xml:space="preserve" class=""><g><g xmlns="http://www.w3.org/2000/svg" id="XMLID_1868_"><g id="XMLID_907_"><path id="XMLID_1096_" d="m334.376 298.431c15.909 0 31.817-6.056 43.929-18.166 21.72-21.72 24.397-55.532 6.365-80.398l-42.198-58.196c-1.881-2.595-4.892-4.13-8.096-4.13s-6.215 1.536-8.096 4.13l-42.199 58.196c-18.03 24.867-15.354 58.679 6.365 80.398 12.113 12.111 28.021 18.166 43.93 18.166zm-34.104-86.825 34.104-47.031 34.102 47.031c12.227 16.861 10.411 39.788-4.316 54.516-16.424 16.424-43.149 16.424-59.573 0-14.728-14.727-16.543-37.654-4.317-54.516z" fill="#2c3f58" data-original="#000000" style="" class=""/><path id="XMLID_1103_" d="m502 492h-298.807c-13.142 0-25.497-5.117-34.79-14.41l-89.527-89.527c-3.154-3.155-4.887-7.35-4.876-11.811.01-4.462 1.762-8.649 4.932-11.789 6.489-6.433 17.03-6.409 23.492.057l86.968 86.989c1.876 1.876 4.42 2.93 7.072 2.93h128.192c5.522 0 10-4.478 10-10s-4.478-10-10-10l-116.911-.001c-9.141-.001-16.576-7.436-16.576-16.576 0-9.141 7.434-16.576 16.571-16.576l74.235-.001c2.684 0 5.256-1.079 7.136-2.994l15.924-16.22c14.412-14.678 34.475-23.097 55.043-23.097 16.848 0 33.495 5.639 46.876 15.877l31.853 24.375c1.745 1.335 3.88 2.059 6.077 2.059h57.116c5.522 0 10-4.478 10-10s-4.478-10-10-10h-53.728l-29.163-22.317c-16.851-12.893-37.814-19.993-59.03-19.993-25.901 0-51.166 10.601-69.314 29.085l-12.984 13.226h-27.748l-14.033-24.313v-191.854c0-35.895-22.979-67.333-57.179-78.231-5.042-1.606-8.784-5.576-10.197-10.462 4.721-4.157 7.708-10.239 7.708-17.009v-36.75c.001-12.499-10.167-22.667-22.665-22.667h-71.334c-12.498 0-22.666 10.168-22.666 22.667v36.75c0 6.77 2.987 12.852 7.709 17.009-1.413 4.886-5.155 8.856-10.197 10.462-34.2 10.898-57.179 42.337-57.179 78.231v103.441c0 5.522 4.477 10 10 10s10-4.478 10-10v-103.441c0-27.151 17.382-50.932 43.252-59.175 11.511-3.668 20.085-12.714 23.329-23.861h62.838c3.244 11.147 11.818 20.193 23.33 23.861 25.87 8.243 43.251 32.024 43.251 59.175v157.201l-16.8-29.107c-3.828-6.634-9.448-11.614-15.901-14.694.447-1.135.701-2.367.701-3.661v-44c0-5.522-4.477-10-10-10h-24v-24c0-5.522-4.477-10-10-10h-44c-5.522 0-10 4.478-10 10v24h-24c-5.522 0-10 4.478-10 10v44c0 5.523 4.478 10 10 10h24v20.234c-1.886 1.267-3.682 2.724-5.354 4.38-9.626 9.537-12.98 23.326-9.529 35.817-2.22 1.396-4.325 3.045-6.262 4.964-6.978 6.913-10.833 16.13-10.855 25.952-.022 9.821 3.79 19.056 10.734 26l89.527 89.527c.092.092.189.176.281.268h-104.542c-16.542 0-30-13.458-30-30v-103.443c0-5.522-4.477-10-10-10s-10 4.478-10 10v103.443c0 27.57 22.43 50 50 50h452c5.522 0 10-4.478 10-10s-4.478-10-10-10zm-419.667-429.917c-1.47 0-2.666-1.196-2.666-2.666v-36.75c0-1.471 1.196-2.667 2.666-2.667h71.334c1.47 0 2.666 1.196 2.666 2.667v36.75c0 1.47-1.196 2.666-2.666 2.666zm90.573 344.647-56.338-56.352c-7.218-7.22-16.746-10.783-26.25-10.699-1.446-5.599.098-11.734 4.404-16.001 6.491-6.431 17.03-6.406 23.492.058l66.07 66.089c-5.246 4.399-9.243 10.238-11.378 16.905zm54.033-25.446h-19.199c-1.194 0-2.374.062-3.538.174l-36.92-36.931-14.243-24.668c-2.23-3.865-2.817-8.365-1.652-12.673s3.941-7.898 7.814-10.111c7.936-4.533 18.109-1.781 22.679 6.136zm-154.939-116.427v-24h24c5.522 0 10-4.478 10-10v-24h24v24c0 5.522 4.477 10 10 10h24v24h-24c-5.523 0-10 4.478-10 10v24h-24v-24c0-5.522-4.478-10-10-10z" fill="#2c3f58" data-original="#000000" style="" class=""/><path id="XMLID_1108_" d="m10 323.56c2.63 0 5.21-1.069 7.069-2.93 1.86-1.86 2.931-4.44 2.931-7.07s-1.07-5.21-2.931-7.069c-1.859-1.86-4.439-2.931-7.069-2.931s-5.21 1.07-7.07 2.931c-1.861 1.859-2.93 4.439-2.93 7.069s1.069 5.21 2.93 7.07c1.86 1.86 4.44 2.93 7.07 2.93z" fill="#2c3f58" data-original="#000000" style="" class=""/></g></g></g></svg>
