<?xml version="1.0"?>
<svg xmlns="http://www.w3.org/2000/svg" xmlns:xlink="http://www.w3.org/1999/xlink" xmlns:svgjs="http://svgjs.com/svgjs" version="1.1" width="512" height="512" x="0" y="0" viewBox="0 0 512 512" style="enable-background:new 0 0 512 512" xml:space="preserve" class=""><g>
<g xmlns="http://www.w3.org/2000/svg">
	<g>
		<path d="M394.667,138.667h-21.333v21.291h21.333v21.333h-85.333v-21.333h31.829c2.843,0.002,5.569-1.13,7.573-3.147l21.504-21.675    c1.971-1.987,3.082-4.668,3.093-7.467V96H352v27.275l-15.275,15.392h-27.637c-0.298-0.006-0.597-0.005-0.895,0.002    c-11.42,0.267-20.46,9.741-20.193,21.161v21.504c-0.007,0.309-0.008,0.619-0.001,0.928c0.239,11.509,9.762,20.645,21.271,20.406    h85.397c0.309,0.007,0.618,0.007,0.928,0c11.526-0.256,20.662-9.807,20.406-21.333V160c0.006-0.295,0.006-0.589,0-0.884    C415.756,147.578,406.205,138.423,394.667,138.667z" fill="#2c3f58" data-original="#000000" style=""/>
	</g>
</g>
<g xmlns="http://www.w3.org/2000/svg">
	<g>
		<rect x="256" y="85.333" width="160" height="21.333" fill="#2c3f58" data-original="#000000" style=""/>
	</g>
</g>
<g xmlns="http://www.w3.org/2000/svg">
	<g>
		<path d="M405.333,0H106.667C77.226,0.035,53.369,23.893,53.333,53.333v405.333c0.035,29.441,23.893,53.298,53.333,53.333h298.667    c29.441-0.035,53.298-23.893,53.333-53.333V53.333C458.631,23.893,434.774,0.035,405.333,0z M437.333,458.667    c0,17.673-14.327,32-32,32H106.667c-17.673,0-32-14.327-32-32V53.333c0-17.673,14.327-32,32-32h298.667c17.673,0,32,14.327,32,32    V458.667z" fill="#2c3f58" data-original="#000000" style=""/>
	</g>
</g>
<g xmlns="http://www.w3.org/2000/svg">
	<g>
		<rect x="245.333" y="42.667" width="21.333" height="426.667" fill="#2c3f58" data-original="#000000" style=""/>
	</g>
</g>
<g xmlns="http://www.w3.org/2000/svg">
	<g>
		<path d="M213.333,245.333V224H192c-0.295-0.006-0.589-0.006-0.884,0c-11.538,0.244-20.693,9.795-20.449,21.333v21.333    c-0.006,0.295-0.006,0.589,0,0.884c0.244,11.538,9.795,20.693,21.333,20.449h21.333v-21.333H192v-21.333H213.333z" fill="#2c3f58" data-original="#000000" style=""/>
	</g>
</g>
<g xmlns="http://www.w3.org/2000/svg">
	<g>
		<rect x="256" y="362.667" width="160" height="21.333" fill="#2c3f58" data-original="#000000" style=""/>
	</g>
</g>
<g xmlns="http://www.w3.org/2000/svg">
	<g>
		<rect x="330.667" y="416" width="42.667" height="21.333" fill="#2c3f58" data-original="#000000" style=""/>
	</g>
</g>
<g xmlns="http://www.w3.org/2000/svg">
</g>
<g xmlns="http://www.w3.org/2000/svg">
</g>
<g xmlns="http://www.w3.org/2000/svg">
</g>
<g xmlns="http://www.w3.org/2000/svg">
</g>
<g xmlns="http://www.w3.org/2000/svg">
</g>
<g xmlns="http://www.w3.org/2000/svg">
</g>
<g xmlns="http://www.w3.org/2000/svg">
</g>
<g xmlns="http://www.w3.org/2000/svg">
</g>
<g xmlns="http://www.w3.org/2000/svg">
</g>
<g xmlns="http://www.w3.org/2000/svg">
</g>
<g xmlns="http://www.w3.org/2000/svg">
</g>
<g xmlns="http://www.w3.org/2000/svg">
</g>
<g xmlns="http://www.w3.org/2000/svg">
</g>
<g xmlns="http://www.w3.org/2000/svg">
</g>
<g xmlns="http://www.w3.org/2000/svg">
</g>
</g></svg>
