<?xml version="1.0"?>
<svg xmlns="http://www.w3.org/2000/svg" xmlns:xlink="http://www.w3.org/1999/xlink" xmlns:svgjs="http://svgjs.com/svgjs" version="1.1" width="512" height="512" x="0" y="0" viewBox="0 0 512 512" style="enable-background:new 0 0 512 512" xml:space="preserve" class=""><g><path xmlns="http://www.w3.org/2000/svg" d="m491.253906 415.207031v-379.832031h10.957032c4.167968 0 7.546874-3.378906 7.546874-7.550781 0-4.167969-3.378906-7.546875-7.546874-7.546875h-110.90625c-.253907-.9375-.554688-1.867188-.910157-2.785156-2.640625-6.816407-7.78125-12.199219-14.46875-15.148438-6.691406-2.949219-14.128906-3.121094-20.945312-.480469-6.816407 2.644531-12.195313 7.785157-15.148438 14.472657-.566406 1.285156-.738281 2.640624-.578125 3.941406h-164.816406c-.253906-.9375-.554688-1.867188-.910156-2.785156-2.644532-6.816407-7.78125-12.199219-14.472656-15.148438-13.804688-6.09375-29.996094.183594-36.089844 13.992188-.566406 1.285156-.738282 2.640624-.582032 3.941406h-114.835937c-4.167969 0-7.546875 3.378906-7.546875 7.546875s3.378906 7.546875 7.546875 7.546875h12.617187v379.890625c-11.316406 1.246093-20.1523432 10.859375-20.1523432 22.503906v46.796875c0 12.484375 10.1562502 22.640625 22.6445312 22.640625h466.699219c12.488281 0 22.644531-10.15625 22.644531-22.640625v-46.796875c0-11.84375-9.144531-21.589844-20.746094-22.558594zm-130.816406-399.265625c3.054688-1.183594 6.390625-1.109375 9.394531.214844 2.054688.90625 3.773438 2.335938 5.039063 4.121094h-20.003906c1.375-1.949219 3.292968-3.453125 5.570312-4.335938zm-207.476562.214844c2.058593.90625 3.773437 2.335938 5.042968 4.121094h-20.007812c3.304687-4.65625 9.542968-6.515625 14.964844-4.121094zm343.941406 468.40625c0 4.160156-3.382813 7.546875-7.546875 7.546875h-466.699219c-4.164062 0-7.550781-3.386719-7.550781-7.546875v-46.796875c0-4.160156 3.386719-7.546875 7.550781-7.546875h247.109375c4.167969 0 7.546875-3.378906 7.546875-7.546875s-3.378906-7.546875-7.546875-7.546875h-234.503906v-379.75h122.0625c-2.285157 2.660156-5.648438 4.269531-9.269531 4.289062-4.167969.019532-7.53125 3.414063-7.507813 7.585938 0 .558594.070313 1.101562.1875 1.625v17.171875l-90.214844 48.515625c-1.867187 1.003906-3.136719 2.683594-3.675781 4.578125-.386719.902344-.597656 1.898437-.597656 2.945313 0 4.171874 3.378906 7.550781 7.546875 7.550781h50.652343v21.777343c0 .070313.011719.140626.011719.214844-24.992187 14.207032-41.894531 41.0625-41.894531 71.808594 0 4.167969 3.378906 7.546875 7.546875 7.546875s7.546875-3.378906 7.546875-7.546875c0-37.203125 30.269531-67.46875 67.472656-67.46875s67.46875 30.265625 67.46875 67.46875c0 .257812.011719.515625.039063.773438l14.882812 144.820312c.007813.066406.015625.132812.023438.199219.320312 2.464843-.40625 4.847656-2.046875 6.714843-1.640625 1.863282-3.910156 2.890626-6.394532 2.890626h-20.542968c.160156-.613282.253906-1.253907.253906-1.917969v-30.441407c0-4.167968-3.378906-7.550781-7.546875-7.550781s-7.546875 3.382813-7.546875 7.550781v30.441407c0 .664062.09375 1.304687.253906 1.917969h-29.992187c.164062-.613282.257812-1.253907.257812-1.917969v-30.441407c0-4.167968-3.378906-7.550781-7.550781-7.550781-4.167969 0-7.546875 3.382813-7.546875 7.550781v30.441407c0 .664062.09375 1.304687.257813 1.917969h-29.992188c.160156-.613282.253906-1.253907.253906-1.917969v-30.441407c0-4.167968-3.378906-7.550781-7.546875-7.550781s-7.550781 3.382813-7.550781 7.550781v30.441407c0 .664062.097656 1.304687.257812 1.917969h-23.671874c-2.484376 0-4.753907-1.027344-6.390626-2.890626-1.640624-1.867187-2.367187-4.25-2.046874-6.714843.007812-.066407.015624-.132813.023437-.199219l11.734375-114.207031c.425781-4.148438-2.589844-7.855469-6.738281-8.28125-4.144531-.417969-7.851563 2.589843-8.277344 6.738281l-11.726563 114.113281c-.835937 6.695313 1.230469 13.4375 5.6875 18.511719 4.484376 5.101562 10.945313 8.027344 17.738282 8.027344h147.949218c6.789063 0 13.253907-2.925782 17.734376-8.027344 4.457031-5.074219 6.527343-11.816406 5.6875-18.511719l-14.832032-144.351562c-.136718-28.902344-15.207031-54.320313-37.863281-68.972657.3125-.828124.492187-1.71875.492187-2.65625v-21.78125h54.21875c4.167969 0 7.546876-3.378906 7.546876-7.546874 0-.992188-.195313-1.9375-.542969-2.804688-.515625-1.949219-1.800781-3.6875-3.714844-4.71875l-91.195313-49.046875c-.261718-.140625-.53125-.257813-.800781-.367187v-11.539063c7.5625-2.265625 13.933594-7.734375 17.21875-15.175781.441407-1.003906.8125-2.027344 1.132813-3.0625h200.007812c-2.285156 2.664062-5.648437 4.273437-9.265625 4.292968-4.167969.019532-7.53125 3.414063-7.511719 7.582032.003907.5625.070313 1.105468.191407 1.628906v17.171875l-90.214844 48.515625c-1.867187 1.003906-3.136719 2.683594-3.675781 4.574219-.386719.90625-.601563 1.902343-.601563 2.949219 0 4.171874 3.378907 7.550781 7.546875 7.550781h50.65625v20.753906c-14.285156 6.492187-24.246094 20.886719-24.246094 37.570313 0 12.804687 5.820313 24.640624 15.765626 32.433593v75.691407c0 4.167968 3.378906 7.546874 7.546874 7.546874h94.589844c4.167969 0 7.546875-3.378906 7.546875-7.546874v-75.691407c9.945313-7.792969 15.765625-19.628906 15.765625-32.433593 0-19.246094-13.246094-35.449219-31.097656-39.984376v-18.339843h55.226562c4.167969 0 7.546876-3.378907 7.546876-7.550781 0-2.875-1.609376-5.375-3.980469-6.648438-.390625-.328125-.816407-.621094-1.285157-.875l-91.195312-49.046875c-.261719-.140625-.53125-.257813-.800781-.367187v-11.539063c7.5625-2.265625 13.9375-7.734375 17.21875-15.175781.441406-1.003906.816406-2.027344 1.132812-3.0625h85.109375v379.753906h-176.203125c-4.167969 0-7.550781 3.378906-7.550781 7.546875s3.382812 7.546875 7.550781 7.546875h189.398438c4.164062 0 7.546875 3.386719 7.546875 7.546875zm-351.777344-343.691406c-8.929688 0-17.523438 1.445312-25.582031 4.078125v-15.316407h55.679687v16.941407c-9.332031-3.664063-19.480468-5.703125-30.097656-5.703125zm-62.6875-26.332032 66.429688-35.726562c.105468-.058594.203124-.125.308593-.1875.101563.0625.199219.128906.304688.1875l66.429687 35.726562zm328.507812 95.5625c-2.195312 1.382813-3.523437 3.792969-3.523437 6.386719v45.753907h-79.492187v-45.753907c0-2.59375-1.332032-5.003906-3.523438-6.386719-7.664062-4.828124-12.242188-13.109374-12.242188-22.140624 0-14.421876 11.734376-26.15625 26.15625-26.15625 9.414063 0 18.140626 5.101562 22.785157 13.316406 1.339843 2.367187 3.847656 3.832031 6.570312 3.832031 2.722657 0 5.230469-1.464844 6.570313-3.832031 4.644531-8.214844 13.375-13.316406 22.785156-13.316406 14.421875 0 26.15625 11.734374 26.15625 26.15625 0 9.03125-4.578125 17.3125-12.242188 22.140624zm-83.015624 67.234376h79.492187v11.203124h-79.492187zm64.160156-130.316407c-9.292969 1.125-17.898438 5.382813-24.414063 11.972657-7.65625-7.746094-18.203125-12.285157-29.355469-12.285157-.640624 0-1.277343.019531-1.910156.046875v-17.121094h55.679688zm-92.785156-32.480469 66.429687-35.726562c.105469-.058594.203125-.125.308594-.1875.101562.0625.199219.128906.304687.1875l66.429688 35.726562zm0 0" fill="#2c3f58" data-original="#000000" style="" class=""/></g></svg>
