<?xml version="1.0" encoding="utf-8"?>
<!-- Generator: Adobe Illustrator 24.0.1, SVG Export Plug-In . SVG Version: 6.00 Build 0)  -->
<svg version="1.1" id="Capa_1" xmlns="http://www.w3.org/2000/svg" xmlns:xlink="http://www.w3.org/1999/xlink" x="0px" y="0px"
	 viewBox="0 0 431.8 431.8" style="enable-background:new 0 0 431.8 431.8;" xml:space="preserve">
<style type="text/css">
	.st0{fill:#2C3F58;}
</style>
<g>
	<path class="st0" d="M264.4,250.6c-0.6,0.5-4.4,2.5-10.9,2.5c-5.9,0-9.9-1.7-10.9-2.5c-9.6-7.9-23.8-6.5-31.7,3.1
		c-7.9,9.6-6.5,23.8,3.1,31.7c4.8,3.9,10.6,7,17,9.2c0,0.4,0,0.8,0,1.2c0,48.4-38.2,82.3-93,82.3c-54.7,0-93-33.8-93-82.3V31.3
		C45,18.9,34.9,8.8,22.5,8.8S0,18.9,0,31.3v264.4c0,36.8,14.8,69.9,41.5,93.3c25.2,21.9,59.4,34,96.4,34s71.3-12.1,96.4-34
		c26.8-23.4,41.5-56.5,41.5-93.3c0-0.4,0-0.8,0-1.2c6.5-2.2,12.4-5.3,17.2-9.3c9.6-7.9,10.9-22.1,3-31.7
		C288.1,244,274,242.7,264.4,250.6z"/>
	<path class="st0" d="M331.2,40H175.7C120.2,40,75.1,85.2,75.1,140.7c0,55.5,45.2,100.7,100.7,100.7h9.6c6.7,0,10.9-4.2,12.3-6.6
		l23.1-39.9c1.6-2.7,6.4-5.2,10-5.2h45.5c3.6,0,8.5,2.5,10,5.2l21.5,37.1c1.7,3.6,6.5,9.4,14,9.4h9.5c55.5,0,100.7-45.2,100.7-100.7
		C431.8,85.2,386.7,40,331.2,40z"/>
</g>
</svg>
