<?xml version="1.0" encoding="utf-8"?>
<!-- Generator: Adobe Illustrator 24.0.1, SVG Export Plug-In . SVG Version: 6.00 Build 0)  -->
<svg version="1.1" id="doctor" xmlns="http://www.w3.org/2000/svg" xmlns:xlink="http://www.w3.org/1999/xlink" x="0px" y="0px"
	 viewBox="0 0 15 15" style="enable-background:new 0 0 15 15;" xml:space="preserve">
<style type="text/css">
	.st0{fill:#2C3F58;}
</style>
<path class="st0" d="M5.5,7C4.1,7,3,5.9,3,4.5l0,0v-2C3,2.2,3.2,2,3.5,2H4c0.3,0,0.5-0.2,0.5-0.5S4.3,1,4,1H3.5C2.7,1,2,1.7,2,2.5v2
	c0,1.1,0.6,2.2,1.5,2.9l0,0C4.4,8.2,5,9.3,5,10.5C5,12.4,6.6,14,8.5,14s3.5-1.6,3.5-3.5V9.9c1.1-0.3,1.7-1.4,1.4-2.4
	c-0.3-1.1-1.4-1.7-2.4-1.4C9.9,6.3,9.3,7.4,9.6,8.5c0.2,0.7,0.7,1.3,1.4,1.4v0.6c0,1.4-1.1,2.5-2.5,2.5S6,11.9,6,10.5
	c0.1-1.2,0.6-2.3,1.5-3.1l0,0C8.4,6.7,9,5.6,9,4.5v-2C9,1.7,8.3,1,7.5,1H7C6.7,1,6.5,1.2,6.5,1.5S6.7,2,7,2h0.5C7.8,2,8,2.2,8,2.5v2
	l0,0C8,5.9,6.9,7,5.5,7 M11.5,9c-0.6,0-1-0.4-1-1s0.4-1,1-1s1,0.4,1,1S12.1,9,11.5,9z"/>
</svg>
