<?xml version="1.0"?>
<svg xmlns="http://www.w3.org/2000/svg" xmlns:xlink="http://www.w3.org/1999/xlink" xmlns:svgjs="http://svgjs.com/svgjs" version="1.1" width="512" height="512" x="0" y="0" viewBox="0 0 512 512" style="enable-background:new 0 0 512 512" xml:space="preserve" class=""><g><path xmlns="http://www.w3.org/2000/svg" d="m127.5 205c28.949219 0 52.5-23.550781 52.5-52.5 0-9.871094-2.742188-19.113281-7.5-27.007812v-27.992188c0-12.40625-10.09375-22.5-22.5-22.5-2.433594 0-4.808594.382812-7.058594 1.132812-4.105468-3.886718-9.582031-6.132812-15.441406-6.132812s-11.335938 2.246094-15.441406 6.132812c-2.25-.75-4.625-1.132812-7.058594-1.132812-12.40625 0-22.5 10.09375-22.5 22.5v27.992188c-4.757812 7.894531-7.5 17.136718-7.5 27.007812 0 28.949219 23.550781 52.5 52.5 52.5zm0-15c-20.679688 0-37.5-16.820312-37.5-37.5s16.820312-37.5 37.5-37.5 37.5 16.820312 37.5 37.5-16.820312 37.5-37.5 37.5zm-22.5-100c2.101562 0 3.648438.855469 4.574219 1.574219 1.765625 1.363281 4.042969 1.875 6.214843 1.394531 2.175782-.480469 4.027344-1.90625 5.046876-3.890625 1.296874-2.515625 3.847656-4.078125 6.664062-4.078125s5.367188 1.5625 6.664062 4.078125c1.023438 1.984375 2.871094 3.40625 5.046876 3.890625 2.171874.480469 4.453124-.027344 6.214843-1.394531.925781-.71875 2.472657-1.574219 4.574219-1.574219 4.136719 0 7.5 3.363281 7.5 7.5v11.953125c-8.511719-5.949219-18.851562-9.453125-30-9.453125s-21.488281 3.503906-30 9.453125v-11.953125c0-4.136719 3.363281-7.5 7.5-7.5zm0 0" fill="#2c3f58" data-original="#000000" style="" class=""/><path xmlns="http://www.w3.org/2000/svg" d="m398.5 329.9375h-75c-4.140625 0-7.5 3.359375-7.5 7.5 0 4.144531 3.359375 7.5 7.5 7.5h75c4.140625 0 7.5-3.355469 7.5-7.5 0-4.140625-3.359375-7.5-7.5-7.5zm0 0" fill="#2c3f58" data-original="#000000" style="" class=""/><path xmlns="http://www.w3.org/2000/svg" d="m504.5 390h-38.5v-67.5c0-12.40625-10.09375-22.5-22.5-22.5h-7.5v-17.5c0-15.164062-12.335938-27.5-27.5-27.5h-95c-15.164062 0-27.5 12.335938-27.5 27.5v17.5h-7.5c-12.40625 0-22.5 10.09375-22.5 22.5v67.5h-38.5c-4.140625 0-7.5 3.355469-7.5 7.5v107c0 4.144531 3.359375 7.5 7.5 7.5s7.5-3.355469 7.5-7.5v-69.5h128.5v69.5c0 4.144531 3.359375 7.5 7.5 7.5s7.5-3.355469 7.5-7.5v-69.5h128.5v69.5c0 4.144531 3.359375 7.5 7.5 7.5s7.5-3.355469 7.5-7.5v-107c0-4.144531-3.359375-7.5-7.5-7.5zm-61-75c4.136719 0 7.5 3.363281 7.5 7.5v67.5h-15v-75zm-142.5 75v-75h120v75zm0-107.5c0-6.894531 5.605469-12.5 12.5-12.5h95c6.894531 0 12.5 5.605469 12.5 12.5v17.5h-120zm-30 40c0-4.136719 3.363281-7.5 7.5-7.5h7.5v75h-15zm-46 97.5v-15h272v15zm0 0" fill="#2c3f58" data-original="#000000" style="" class=""/><path xmlns="http://www.w3.org/2000/svg" d="m504.5 0h-287c-4.140625 0-7.5 3.355469-7.5 7.5v45c0 4.144531 3.359375 7.5 7.5 7.5h287c4.140625 0 7.5-3.355469 7.5-7.5v-45c0-4.144531-3.359375-7.5-7.5-7.5zm-7.5 45h-272v-30h272zm0 0" fill="#2c3f58" data-original="#000000" style="" class=""/><path xmlns="http://www.w3.org/2000/svg" d="m189.871094 497.324219-24.871094-8.292969v-84.03125h7.5c4.140625 0 7.5-3.355469 7.5-7.5v-150c0-15.164062-12.335938-27.5-27.5-27.5h-50c-12.449219 0-22.988281 8.320312-26.363281 19.691406-34.246094-3.21875-61.136719-32.117187-61.136719-67.191406 0-4.144531-3.359375-7.5-7.5-7.5s-7.5 3.355469-7.5 7.5c0 42.960938 33.011719 78.339844 75 82.144531v142.855469c0 4.144531 3.359375 7.5 7.5 7.5h7.5v84.03125l-24.871094 8.292969c-3.929687 1.308593-6.054687 5.558593-4.746094 9.484375 1.050782 3.144531 3.976563 5.132812 7.113282 5.132812.789062 0 1.589844-.125 2.375-.386718l30-10c3.0625-1.023438 5.128906-3.890626 5.128906-7.117188v-89.4375h45v89.4375c0 3.230469 2.066406 6.09375 5.128906 7.117188l30 10c.785156.261718 1.585938.386718 2.371094.386718 3.140625 0 6.066406-1.988281 7.113281-5.132812 1.3125-3.925782-.8125-8.175782-4.742187-9.484375zm-39.871094-107.324219v-75h15v75zm-60 0v-75h45v75zm12.5-155h50c6.894531 0 12.5 5.605469 12.5 12.5v52.5h-75v-52.5c0-6.894531 5.605469-12.5 12.5-12.5zm0 0" fill="#2c3f58" data-original="#000000" style="" class=""/><path xmlns="http://www.w3.org/2000/svg" d="m500.558594 122.902344-52.808594-29.78125v-10.621094c0-4.144531-3.359375-7.5-7.5-7.5s-7.5 3.355469-7.5 7.5v10.621094c-12.644531 7.128906-52.417969 29.5625-52.808594 29.785156-7.058594 3.980469-11.441406 11.488281-11.441406 19.59375 0 12.40625 10.09375 22.5 22.5 22.5h98.5c12.40625 0 22.5-10.09375 22.5-22.5 0-8.105469-4.382812-15.609375-11.441406-19.597656zm-11.058594 27.097656h-98.5c-4.136719 0-7.5-3.363281-7.5-7.5 0-2.699219 1.460938-5.203125 3.8125-6.527344.386719-.222656 40.4375-22.8125 52.9375-29.863281l52.9375 29.859375c2.351562 1.328125 3.8125 3.832031 3.8125 6.53125 0 4.136719-3.363281 7.5-7.5 7.5zm0 0" fill="#2c3f58" data-original="#000000" style="" class=""/><path xmlns="http://www.w3.org/2000/svg" d="m281.75 75c-4.140625 0-7.5 3.355469-7.5 7.5v10.621094c-12.644531 7.128906-52.417969 29.5625-52.808594 29.785156-7.058594 3.984375-11.441406 11.488281-11.441406 19.59375 0 12.40625 10.09375 22.5 22.5 22.5h98.5c12.40625 0 22.5-10.09375 22.5-22.5 0-8.105469-4.382812-15.609375-11.441406-19.597656l-52.808594-29.78125v-10.621094c0-4.144531-3.359375-7.5-7.5-7.5zm56.75 67.5c0 4.136719-3.363281 7.5-7.5 7.5h-98.5c-4.136719 0-7.5-3.363281-7.5-7.5 0-2.699219 1.460938-5.203125 3.8125-6.527344.386719-.222656 40.4375-22.8125 52.9375-29.863281l52.9375 29.859375c2.351562 1.328125 3.8125 3.832031 3.8125 6.53125zm0 0" fill="#2c3f58" data-original="#000000" style="" class=""/></g></svg>
