<?xml version="1.0"?>
<svg xmlns="http://www.w3.org/2000/svg" xmlns:xlink="http://www.w3.org/1999/xlink" xmlns:svgjs="http://svgjs.com/svgjs" version="1.1" width="512" height="512" x="0" y="0" viewBox="0 0 368 368" style="enable-background:new 0 0 512 512" xml:space="preserve" class=""><g>
<g xmlns="http://www.w3.org/2000/svg">
	<g>
		<path d="M312,0H56C42.768,0,32,10.768,32,24v96v192v32c0,13.232,10.768,24,24,24h256c13.232,0,24-10.768,24-24v-32V120V24    C336,10.768,325.232,0,312,0z M112,16h144v48H112V16z M48,24c0-4.408,3.584-8,8-8h40v48H48V24z M320,344c0,4.408-3.584,8-8,8H56    c-4.416,0-8-3.592-8-8v-24h272V344z M320,240h-48v-48h48V240z M320,176h-56c-4.424,0-8,3.584-8,8v64c0,4.416,3.576,8,8,8h56v48H48    V128h272V176z M320,112H48V80h272V112z M320,64h-48V16h40c4.416,0,8,3.592,8,8V64z" fill="#2c3f58" data-original="#000000" style=""/>
	</g>
</g>
<g xmlns="http://www.w3.org/2000/svg">
</g>
<g xmlns="http://www.w3.org/2000/svg">
</g>
<g xmlns="http://www.w3.org/2000/svg">
</g>
<g xmlns="http://www.w3.org/2000/svg">
</g>
<g xmlns="http://www.w3.org/2000/svg">
</g>
<g xmlns="http://www.w3.org/2000/svg">
</g>
<g xmlns="http://www.w3.org/2000/svg">
</g>
<g xmlns="http://www.w3.org/2000/svg">
</g>
<g xmlns="http://www.w3.org/2000/svg">
</g>
<g xmlns="http://www.w3.org/2000/svg">
</g>
<g xmlns="http://www.w3.org/2000/svg">
</g>
<g xmlns="http://www.w3.org/2000/svg">
</g>
<g xmlns="http://www.w3.org/2000/svg">
</g>
<g xmlns="http://www.w3.org/2000/svg">
</g>
<g xmlns="http://www.w3.org/2000/svg">
</g>
</g></svg>
