<?xml version="1.0" encoding="utf-8"?>
<!-- Generator: Adobe Illustrator 24.0.1, SVG Export Plug-In . SVG Version: 6.00 Build 0)  -->
<svg version="1.1" id="Capa_1" xmlns="http://www.w3.org/2000/svg" xmlns:xlink="http://www.w3.org/1999/xlink" x="0px" y="0px"
	 viewBox="0 0 486.1 486.1" style="enable-background:new 0 0 486.1 486.1;" xml:space="preserve">
<style type="text/css">
	.st0{fill:#2C3F58;}
</style>
<g>
	<g>
		<path class="st0" d="M388.4,124.7c3.2,0.8,6.5,1.2,9.8,1.2c16.2,0,31.2-10.3,37.1-25.4c5.9-15.3,1.6-33.2-10.7-44.1
			C412.3,45.4,394,43.2,379.5,51c-14.4,7.7-22.8,23.9-20.8,40.1C360.7,107.1,372.7,120.7,388.4,124.7z"/>
		<path class="st0" d="M486,242.1c0,0.4,0,0.4,0-1.2c0-0.4,0-0.5,0-0.4c-0.8-20.2-5.1-40.4-13.9-58.7c-4.8-10.1-11-19.5-18.6-27.7
			c-3.6-4-7.5-7.7-11.6-11c-3.8-3-7.8-5.9-12.1-8.1c-4.5-2.3-9.2-4.1-14.2-4.8c-5.2-0.8-10.5-0.6-15.6,0.8
			c-7.1,1.9-16.7,9.5-18.6,11.2c-4.2,3.7-8.9,7.4-13.1,11.2L344,175l-25.6,22.8c-5.4,4.8-10.9,9.6-16.3,14.5c-0.5,0.5-1,0.9-1.5,1.4
			c-4.4,3.9-5,10.5-2,15.3c-0.9,0.3-1.7,0.8-2.4,1.4c-5.2,4.3-10.7,7.9-17.5,8.8c-6.4,0.9-13.4-0.8-18.2-5
			c-11.5-10.1-26.2-9.3-37.9,0.1c-4.9,3.9-11.8,5.8-18.1,5c-6.8-0.9-12.3-4.6-17.5-8.8c0,0-0.1-0.1-0.1-0.1
			c1.1-4.1-0.1-8.8-3.5-11.8c-4.2-3.7-8.3-7.4-12.5-11.1c-9.1-8.1-18.3-16.2-27.4-24.4c-9.1-8.1-18.2-16.2-27.4-24.3
			c-3-2.7-11.5-10.3-12.8-11.4c-9.2-8-19.5-12.4-31-11.4c-11,0.9-20.8,6.8-29.2,13.6c-9.4,7.7-17.5,17.3-23.7,27.7
			c-5.7,9.6-9.9,19.7-13.1,30.3c-3.5,11.3-5,23.2-5.8,35c-0.8,11.8,0,23.7,1.2,35.4c0.1,0.7,0.1,1.3,0.2,2
			c0.6,6.1,6.2,10.8,12.4,10.4c6.1-0.4,11-5.7,10.9-11.9c-0.1-4.1-0.2-8.3-0.1-12.4c0.1-6.1,0.6-12.2,1.2-18.3
			c1.1-11,3.8-22.2,8-32.5c0.7-1.8,1.5-3.6,2.3-5.4v34.6L9,344c-0.5,2.5,0.2,5.1,1.8,7c1.6,2,4,3.1,6.6,3.1h29.2l6.9,32
			c1.5,7.1,8.7,11.8,15.8,10.5l-2.3-43h4.9l4.2,73.2c0.4,7.1,6.4,12.9,13.6,12.9c7.2,0,13.3-5.8,13.6-13l3.3-72.6h28
			c2.6,0,4.9-1.1,6.6-3.1c1.6-2,2.3-4.5,1.8-7l-28.3-100.1v-46.4l54.1,39c1.6,1.1,3.4,1.8,5.3,2.1c0.3,1.2,0.9,2.4,1.8,3.3
			c5.2,5.8,11,10.7,18.1,14c6.4,3,13.6,4.2,20.6,3.9v22.7l-19.9,78.1c-0.3,1.6,0.1,3.3,1.2,4.6c1.1,1.3,2.6,2,4.3,2h16.1l2.9,63.5
			c0.2,5,4.5,9,9.5,9c4.9,0,9.1-4,9.4-8.9l3.5-63.6h0.8l2.9,63.5c0.2,5,4.5,9,9.5,9c4.9,0,9.1-4,9.4-8.9l3.5-63.6h15.9
			c1.7,0,3.2-0.7,4.3-2s1.5-2.9,1.2-4.6l-19.9-77.3v-23.5c6.9,0.4,14-0.8,20.3-3.7c7.2-3.3,13.1-8.3,18.4-14.1
			c1.9-2.1,2.5-5,1.8-7.6c2.2-0.1,4.4-0.8,6.3-2.2l54.8-39.5v78.7c0,4,0,7.9,0.1,11.9c0.3,6.3,0.5,12.6,0.8,19l1.3,31.1
			c0.5,11.9,1,23.7,1.5,35.6c0.4,10.7,0.9,21.5,1.4,32.2c0.3,7.1,0.6,14.1,0.9,21.2c0.1,1.4,0.1,2.8,0.2,4.2
			c0.3,7.3,6.5,13.2,13.8,13.2c7.2,0,13.3-5.9,13.7-13.1l5.7-112c1.8,0,3.6-0.1,5.4-0.3l-4,78.5c7.4,1.5,14.6-3.2,16.2-10.6
			l3.1-14.5c2.3-10.7,4.6-21.4,6.9-32l7-32.5c1.1-5.3,2.3-10.5,3.4-15.8c0.3-1.5,0.9-2.9,1.2-4.4c0.5-2.6,0.8-5.3,0.8-7.9v-69.9
			c3.9,8.3,6.7,17.2,8.4,26.2c1.1,5.6,1.9,11.3,2.5,17c0.5,5.4,0.7,10.9,0.8,16.3c0.1,3.3-0.1,6.7-0.2,10c-0.1,6.2,4.9,11.6,11.1,12
			c6.2,0.4,11.8-4.4,12.5-10.6c0.5-4.9,1-9.8,1.3-14.7C486.2,254.8,486.2,248.5,486,242.1z M242,276.1l-0.6,0.4l-0.8-0.5
			c-0.1,0-0.2-0.1-0.2-0.1c-1.4-0.9-2.8-1.9-4.1-3c-1.8-1.4-3.5-3-5.1-4.6c-1.7-1.8-3.4-3.6-4.7-5.7c-1.3-1.9-2.4-3.9-3-6.1
			c-0.5-1.9-0.5-4,0.3-5.9c0.4-1,1-1.9,1.8-2.7c0.9-1,2.1-1.8,3.3-2.5c1.5-0.8,3.1-1.1,4.7-1c1.4,0.1,2.8,0.5,4.1,1.1
			c1,0.5,2,1,2.8,1.7c0.1,0,1,0.8,1,0.8c0.4-0.4,0.8-0.7,1.3-1c1-0.7,2-1.3,3.1-1.7c1.3-0.6,2.8-0.9,4.2-0.9c1.7,0,3.3,0.5,4.7,1.4
			C269.4,255,247.5,272.8,242,276.1z"/>
		<path class="st0" d="M75.4,131.8c18.3,0,34.6-13.1,38.4-31c1.9-8.9,0.6-18.4-3.6-26.5c-4.1-7.8-10.8-14.1-18.9-17.6
			c-8.4-3.7-18-4.4-26.8-1.8c-8.5,2.4-16,7.8-21.1,15c-10.7,15-9.3,36.1,3.3,49.6C54.1,127.2,64.6,131.8,75.4,131.8z"/>
		<path class="st0" d="M231.7,225c3.1,1.2,6.4,1.8,9.7,1.8c9,0,17.6-4.6,22.7-12.1c5.1-7.6,6-17.6,2.3-26
			c-3.6-8.2-11.2-14.2-20-15.9c-9-1.7-18.4,1.4-24.7,8c-6.3,6.6-8.9,16.2-6.8,25.1C217,214.5,223.4,221.8,231.7,225z"/>
	</g>
</g>
</svg>
