<?xml version="1.0"?>
<svg xmlns="http://www.w3.org/2000/svg" xmlns:xlink="http://www.w3.org/1999/xlink" xmlns:svgjs="http://svgjs.com/svgjs" version="1.1" width="512" height="512" x="0" y="0" viewBox="0 0 512 512" style="enable-background:new 0 0 512 512" xml:space="preserve" class=""><g><g xmlns="http://www.w3.org/2000/svg"><circle cx="293.5" cy="67.5" r="7.5" fill="#2c3f58" data-original="#000000" style="" class=""/><path d="m226 247.5v47c0 4.143 3.358 7.5 7.5 7.5h112.5v105h-105v-82.5c0-4.143-3.358-7.5-7.5-7.5s-7.5 3.357-7.5 7.5v90c0 4.143 3.358 7.5 7.5 7.5h120c4.143 0 7.5-3.357 7.5-7.5v-167c0-4.143-3.357-7.5-7.5-7.5h-120c-4.142 0-7.5 3.357-7.5 7.5zm15 7.5h105v32h-105z" fill="#2c3f58" data-original="#000000" style="" class=""/><path d="m398.5 60h-37.5v-15h37.5c20.678 0 37.5-16.822 37.5-37.5 0-4.143-3.357-7.5-7.5-7.5h-160.977c-16.542 0-30 13.458-30 30 0 5.462 1.475 10.584 4.036 15h-67.383c-54.134 0-98.176 44.041-98.176 98.176 0 15.16 3.584 30.343 10.365 43.906l42.509 85.019c4.662 9.323 7.126 19.762 7.126 30.187v172.212c0 4.143 3.358 7.5 7.5 7.5h30c4.142 0 7.5-3.357 7.5-7.5v-172.213c0-17.375-4.107-34.772-11.877-50.312l-42.509-85.018c-3.673-7.347-5.614-15.57-5.614-23.782 0-29.321 23.855-53.175 53.176-53.175h81.824v30h-7.5c-4.142 0-7.5 3.357-7.5 7.5v37.873c-27.044 17.348-45 47.68-45 82.127v227c0 20.678 16.822 37.5 37.5 37.5h120c20.678 0 37.5-16.822 37.5-37.5v-227c0-34.447-17.956-64.778-45-82.127v-37.873c0-4.143-3.357-7.5-7.5-7.5h-7.5v-15h97.5c4.143 0 7.5-3.357 7.5-7.5 0-20.678-16.822-37.5-37.5-37.5zm-247.5 407v-105h15v105zm23.176-392c-37.593 0-68.176 30.584-68.176 68.176 0 10.528 2.489 21.071 7.198 30.49l42.509 85.019c6.734 13.466 10.293 28.544 10.293 43.602v44.713h-15v-44.713c0-12.741-3.012-25.499-8.71-36.896l-42.509-85.018c-5.744-11.49-8.781-24.353-8.781-37.197 0-45.863 37.312-83.176 83.176-83.176h82.578c-.494 2.424-.755 4.932-.755 7.5v7.5zm201.824 172.5v227c0 12.406-10.094 22.5-22.5 22.5h-120c-12.407 0-22.5-10.094-22.5-22.5v-227c0-45.49 37.009-82.5 82.5-82.5 45.49 0 82.5 37.01 82.5 82.5zm-82.5-97.5c-13.282 0-25.95 2.674-37.5 7.504v-22.504h75v22.504c-11.55-4.83-24.218-7.504-37.5-7.504zm-22.5-30v-22.52c6.272 4.719 14.064 7.52 22.5 7.52s16.228-2.801 22.5-7.52v22.52zm0-52.5c0-12.406 10.094-22.5 22.5-22.5s22.5 10.094 22.5 22.5-10.094 22.5-22.5 22.5-22.5-10.094-22.5-22.5zm60 22.5v-22.5c0-20.678-16.822-37.5-37.5-37.5-12.03 0-22.748 5.701-29.614 14.535-6.516-1.632-11.362-7.52-11.362-14.535 0-8.271 6.729-15 15-15h152.191c-3.096 8.73-11.437 15-21.215 15h-45c-4.143 0-7.5 3.357-7.5 7.5v30c0 4.143 3.357 7.5 7.5 7.5h45c9.778 0 18.119 6.27 21.215 15z" fill="#2c3f58" data-original="#000000" style="" class=""/></g></g></svg>
