<?xml version="1.0" encoding="utf-8"?>
<!-- Generator: Adobe Illustrator 24.0.1, SVG Export Plug-In . SVG Version: 6.00 Build 0)  -->
<svg version="1.1" id="Capa_1" xmlns="http://www.w3.org/2000/svg" xmlns:xlink="http://www.w3.org/1999/xlink" x="0px" y="0px"
	 viewBox="0 0 494.5 494.5" style="enable-background:new 0 0 494.5 494.5;" xml:space="preserve">
<style type="text/css">
	.st0{fill:#2C3F58;}
</style>
<g>
	<g>
		<g>
			<path class="st0" d="M395.2,277.3c-6.8,0-13.5-2.6-18.7-7.8c-71.4-71.3-187.4-71.3-258.8,0c-10.3,10.3-27.1,10.3-37.4,0
				s-10.3-27.1,0-37.4c92-92,241.6-92,333.6,0c10.3,10.3,10.3,27.1,0,37.4C408.7,274.7,401.9,277.3,395.2,277.3z"/>
		</g>
		<g>
			<path class="st0" d="M323.6,348.8c-6.8,0-13.5-2.6-18.7-7.8c-15.4-15.4-36-23.9-57.8-23.9s-42.4,8.5-57.8,23.9
				c-10.3,10.3-27.1,10.3-37.4,0c-10.3-10.3-10.3-27.1,0-37.4c25.4-25.4,59.2-39.4,95.2-39.4s69.8,14,95.2,39.5
				c10.3,10.3,10.3,27.1,0,37.4C337.2,346.2,330.4,348.8,323.6,348.8z"/>
		</g>
		<g>
			<circle class="st0" cx="247.1" cy="398.9" r="35.3"/>
		</g>
		<g>
			<path class="st0" d="M467.9,204.6c-6.8,0-13.5-2.6-18.7-7.8c-111.5-111.4-292.7-111.4-404.1,0c-10.3,10.3-27.1,10.3-37.4,0
				s-10.3-27.1,0-37.4c64-64,149-99.2,239.5-99.2s175.5,35.2,239.5,99.2c10.3,10.3,10.3,27.1,0,37.4
				C481.4,202,474.6,204.6,467.9,204.6z"/>
		</g>
	</g>
</g>
</svg>
