<?xml version="1.0"?>
<svg xmlns="http://www.w3.org/2000/svg" xmlns:xlink="http://www.w3.org/1999/xlink" xmlns:svgjs="http://svgjs.com/svgjs" version="1.1" width="512" height="512" x="0" y="0" viewBox="0 0 512 512" style="enable-background:new 0 0 512 512" xml:space="preserve" class=""><g><g xmlns="http://www.w3.org/2000/svg"><path d="m497 60h-30c-8.284 0-15 6.716-15 15s6.716 15 15 15h30c8.284 0 15-6.716 15-15s-6.716-15-15-15z" fill="#2c3f58" data-original="#000000" style="" class=""/><path d="m497 120h-30c-8.284 0-15 6.716-15 15s6.716 15 15 15h30c8.284 0 15-6.716 15-15s-6.716-15-15-15z" fill="#2c3f58" data-original="#000000" style="" class=""/><path d="m497 180h-30c-8.284 0-15 6.716-15 15s6.716 15 15 15h30c8.284 0 15-6.716 15-15s-6.716-15-15-15z" fill="#2c3f58" data-original="#000000" style="" class=""/><path d="m135 60c-41.355 0-75 33.645-75 75s33.645 75 75 75 75-33.645 75-75-33.645-75-75-75zm0 120c-24.813 0-45-20.187-45-45s20.187-45 45-45 45 20.187 45 45-20.187 45-45 45z" fill="#2c3f58" data-original="#000000" style="" class=""/><path d="m408.477 60.073c-10.667-1.055-164.987-16.316-174.885-17.295-25.504-27.261-61.092-42.778-98.592-42.778-74.439 0-135 60.561-135 135 0 47.056 24.45 90.494 64.266 115.007l21.474 101.664c3.231 18.558 16.818 32.95 34.26 37.671v47.658c0 41.355 33.645 75 75 75s75-33.645 75-75v-31c0-8.271 6.729-15 15-15s15 6.729 15 15v91c0 8.284 6.716 15 15 15s15-6.716 15-15v-91c0-24.813-20.187-45-45-45s-45 20.187-45 45v31c0 24.813-20.187 45-45 45s-45-20.187-45-45v-49.349c17.553-6.979 30-24.124 30-44.134v-12.517h15c8.284 0 15-6.716 15-15s-6.716-15-15-15h-15v-38.678c20.414-7.19 38.695-19.15 53.595-35.1 10.035-.992 164.236-16.242 174.882-17.294 7.674-.76 13.523-7.216 13.523-14.928v-120c0-7.712-5.849-14.168-13.523-14.927zm-183.647 137.869c-3.856.381-7.416 2.241-9.932 5.188-14.142 16.565-32.688 28.171-53.637 33.563-6.629 1.706-11.262 7.682-11.262 14.526v92.298c0 9.64-7.843 17.483-17.482 17.483-8.582 0-15.834-6.144-17.245-14.608-.078-.473-7.779-36.881-23.032-109.104-.905-4.287-3.641-7.964-7.486-10.064-33.774-18.446-54.754-53.784-54.754-92.224 0-57.897 47.103-105 105-105 30.774 0 59.896 13.438 79.898 36.87 2.516 2.948 6.075 4.807 9.932 5.188l107.17 10.598v104.688zm167.17-16.532-30 2.967v-98.754l30 2.967z" fill="#2c3f58" data-original="#000000" style="" class=""/></g></g></svg>
