<?xml version="1.0"?>
<svg xmlns="http://www.w3.org/2000/svg" xmlns:xlink="http://www.w3.org/1999/xlink" xmlns:svgjs="http://svgjs.com/svgjs" version="1.1" width="512" height="512" x="0" y="0" viewBox="0 0 480 480" style="enable-background:new 0 0 512 512" xml:space="preserve" class=""><g><path xmlns="http://www.w3.org/2000/svg" d="m266.25 224c13.25-.015625 23.984375-10.75 24-24v-104h-32v-56c-.027344-22.082031-17.917969-39.9726562-40-40h-112c-22.082031.0273438-39.972656 17.917969-40 40v56h-32v104c.015625 13.25 10.75 23.984375 24 24h5.75l-64 256h48.5l32-128h163.5l32 128h48.5l-64-256zm8-24c-.003906 4.417969-3.582031 7.996094-8 8h-8v-64h16zm-192-160c.015625-13.25 10.75-23.984375 24-24h112c13.25.015625 23.984375 10.75 24 24v56h-160zm-32 72h224v16h-224zm32 96v-16h160v16zm129.75 16 20 80h-139.5l20-80zm-129.75-48v-32h160v32zm-24 32c-4.417969-.003906-7.996094-3.582031-8-8v-56h16v64zm-22.25 256h-15.5l60-240h15.5zm48.5-128 4-16h147.5l4 16zm219.5 128h-15.5l-60-240h15.5zm0 0" fill="#2c3f58" data-original="#000000" style="" class=""/><path xmlns="http://www.w3.org/2000/svg" d="m210.25 32h-48v16h48v32h16v-32c-.011719-8.832031-7.167969-15.988281-16-16zm0 0" fill="#2c3f58" data-original="#000000" style="" class=""/><path xmlns="http://www.w3.org/2000/svg" d="m130.25 32h16v16h-16zm0 0" fill="#2c3f58" data-original="#000000" style="" class=""/></g></svg>
