<?xml version="1.0"?>
<svg xmlns="http://www.w3.org/2000/svg" xmlns:xlink="http://www.w3.org/1999/xlink" xmlns:svgjs="http://svgjs.com/svgjs" version="1.1" width="512" height="512" x="0" y="0" viewBox="0 0 512 512" style="enable-background:new 0 0 512 512" xml:space="preserve"><g>
<g xmlns="http://www.w3.org/2000/svg">
	<g>
		<g>
			<circle cx="330.667" cy="53.333" r="10.667" fill="#2c3f58" data-original="#000000" style=""/>
			<path d="M266.667,42.667h-21.333c-5.896,0-10.667,4.771-10.667,10.667c0,5.896,4.771,10.667,10.667,10.667h21.333     c5.896,0,10.667-4.771,10.667-10.667C277.333,47.438,272.563,42.667,266.667,42.667z" fill="#2c3f58" data-original="#000000" style=""/>
			<path d="M405.333,298.667H384v-256C384,19.146,364.865,0,341.333,0H170.667C147.135,0,128,19.146,128,42.667v256h-21.333     C47.854,298.667,0,346.521,0,405.333S47.854,512,106.667,512h298.667C464.146,512,512,464.146,512,405.333     S464.146,298.667,405.333,298.667z M149.333,42.667c0-11.771,9.573-21.333,21.333-21.333h170.667     c11.76,0,21.333,9.563,21.333,21.333v256H149.333V42.667z M405.333,490.667H106.667c-47.052,0-85.333-38.271-85.333-85.333     S59.615,320,106.667,320h298.667c47.052,0,85.333,38.271,85.333,85.333S452.385,490.667,405.333,490.667z" fill="#2c3f58" data-original="#000000" style=""/>
			<path d="M106.667,341.333c-35.292,0-64,28.708-64,64c0,35.292,28.708,64,64,64c35.292,0,64-28.708,64-64     C170.667,370.042,141.958,341.333,106.667,341.333z M106.667,448C83.135,448,64,428.854,64,405.333     c0-23.521,19.135-42.667,42.667-42.667s42.667,19.146,42.667,42.667C149.333,428.854,130.198,448,106.667,448z" fill="#2c3f58" data-original="#000000" style=""/>
			<path d="M405.333,341.333c-35.292,0-64,28.708-64,64c0,35.292,28.708,64,64,64c35.292,0,64-28.708,64-64     C469.333,370.042,440.625,341.333,405.333,341.333z M405.333,448c-23.531,0-42.667-19.146-42.667-42.667     c0-23.521,19.135-42.667,42.667-42.667S448,381.813,448,405.333C448,428.854,428.865,448,405.333,448z" fill="#2c3f58" data-original="#000000" style=""/>
			<path d="M224,426.667h-21.333c-5.896,0-10.667,4.771-10.667,10.667c0,5.896,4.771,10.667,10.667,10.667H224     c5.896,0,10.667-4.771,10.667-10.667C234.667,431.438,229.896,426.667,224,426.667z" fill="#2c3f58" data-original="#000000" style=""/>
			<path d="M309.333,426.667H288c-5.896,0-10.667,4.771-10.667,10.667c0,5.896,4.771,10.667,10.667,10.667h21.333     c5.896,0,10.667-4.771,10.667-10.667C320,431.438,315.229,426.667,309.333,426.667z" fill="#2c3f58" data-original="#000000" style=""/>
			<path d="M213.333,341.333c-11.76,0-21.333,9.563-21.333,21.333S201.573,384,213.333,384c11.76,0,21.333-9.563,21.333-21.333     S225.094,341.333,213.333,341.333z M213.344,362.667l-0.01-0.021L224,362.667H213.344z" fill="#2c3f58" data-original="#000000" style=""/>
			<path d="M298.667,341.333c-11.76,0-21.333,9.563-21.333,21.333S286.906,384,298.667,384c11.76,0,21.333-9.563,21.333-21.333     S310.427,341.333,298.667,341.333z M298.677,362.667l-0.01-0.021l10.667,0.021H298.677z" fill="#2c3f58" data-original="#000000" style=""/>
		</g>
	</g>
</g>
<g xmlns="http://www.w3.org/2000/svg">
</g>
<g xmlns="http://www.w3.org/2000/svg">
</g>
<g xmlns="http://www.w3.org/2000/svg">
</g>
<g xmlns="http://www.w3.org/2000/svg">
</g>
<g xmlns="http://www.w3.org/2000/svg">
</g>
<g xmlns="http://www.w3.org/2000/svg">
</g>
<g xmlns="http://www.w3.org/2000/svg">
</g>
<g xmlns="http://www.w3.org/2000/svg">
</g>
<g xmlns="http://www.w3.org/2000/svg">
</g>
<g xmlns="http://www.w3.org/2000/svg">
</g>
<g xmlns="http://www.w3.org/2000/svg">
</g>
<g xmlns="http://www.w3.org/2000/svg">
</g>
<g xmlns="http://www.w3.org/2000/svg">
</g>
<g xmlns="http://www.w3.org/2000/svg">
</g>
<g xmlns="http://www.w3.org/2000/svg">
</g>
</g></svg>
