<?xml version="1.0"?>
<svg xmlns="http://www.w3.org/2000/svg" xmlns:xlink="http://www.w3.org/1999/xlink" xmlns:svgjs="http://svgjs.com/svgjs" version="1.1" width="512" height="512" x="0" y="0" viewBox="0 0 512 512" style="enable-background:new 0 0 512 512" xml:space="preserve" class=""><g><g xmlns="http://www.w3.org/2000/svg"><path d="m119.765 76.678h272.471c15.959 0 30.444 6.52 40.932 17.008 10.517 10.518 17.036 25.002 17.036 40.962v82.063h22.764c10.743 0 20.522 4.395 27.581 11.453 7.059 7.059 11.452 16.838 11.452 27.58v88.3c0 10.744-4.394 20.496-11.452 27.553-7.059 7.088-16.838 11.481-27.581 11.481h-22.764v44.732c0 4.137-3.373 7.512-7.512 7.512h-33.959c-4.139 0-7.512-3.375-7.512-7.512v-44.732h-290.442v44.732c0 4.137-3.345 7.512-7.483 7.512h-33.987c-4.139 0-7.483-3.375-7.483-7.512v-44.732h-22.793c-10.743 0-20.494-4.393-27.581-11.481-7.058-7.057-11.452-16.809-11.452-27.553v-88.3c0-10.742 4.394-20.521 11.452-27.58 7.087-7.088 16.838-11.453 27.581-11.453h22.792v-82.063c0-15.96 6.52-30.444 17.008-40.962 10.487-10.489 25.001-17.008 40.932-17.008zm-50.456 277.261c-4.139 0-7.483-3.346-7.483-7.484s3.345-7.512 7.483-7.512h33.987c4.139 0 7.483 3.373 7.483 7.512s-3.345 7.484-7.483 7.484zm339.423 0c-4.139 0-7.512-3.346-7.512-7.484s3.373-7.512 7.512-7.512h33.959c4.139 0 7.512 3.373 7.512 7.512s-3.373 7.484-7.512 7.484zm88.273-46.518v-51.677c0-6.604-2.693-12.613-7.059-16.979-4.365-4.365-10.375-7.059-16.979-7.059-144.626 0-289.279 0-433.934 0-6.604 0-12.614 2.693-16.951 7.059-4.365 4.365-7.087 10.375-7.087 16.979v51.677h224.025c4.139 0 7.512 3.346 7.512 7.484 0 4.166-3.373 7.512-7.512 7.512h-224.025v21.627c0 6.605 2.722 12.615 7.087 16.951 4.337 4.367 10.347 7.088 16.951 7.088h433.934c6.604 0 12.614-2.721 16.979-7.088 4.365-4.336 7.059-10.346 7.059-16.951v-21.627h-224.026c-4.139 0-7.483-3.346-7.483-7.512 0-4.139 3.345-7.484 7.483-7.484zm-401.221 75.657h-18.964v37.248h18.964zm272.497-210.446c-4.11.482-7.823-2.467-8.306-6.576-.453-4.111 2.494-7.824 6.605-8.307 5.896-.68 11.678-1.699 17.376-3.06 5.783-1.389 11.595-3.117 17.405-5.215 5.074-1.814 10.007 2.041 10.007 7.285v59.952h23.839v-82.063c0-11.821-4.847-22.566-12.643-30.331-7.795-7.795-18.51-12.643-30.33-12.643h-272.469c-11.792 0-22.535 4.848-30.33 12.643-7.796 7.766-12.614 18.51-12.614 30.331v82.063h23.811v-60.208c0-5.443 5.613-9.014 10.488-6.889 5.783 2.098 11.452 3.826 16.98 5.16 5.669 1.359 11.452 2.352 17.319 3.033 4.111.48 7.059 4.193 6.577 8.305-.454 4.109-4.167 7.059-8.277 6.576-6.236-.709-12.586-1.842-19.078-3.402-3.005-.707-6.01-1.529-8.986-2.408v49.833h91.759v-49.89c-2.977.879-5.953 1.672-8.957 2.408-6.463 1.531-12.842 2.693-19.135 3.402-4.109.482-7.823-2.467-8.276-6.576-.482-4.111 2.466-7.824 6.576-8.307 5.925-.68 11.707-1.699 17.376-3.06 5.783-1.389 11.594-3.117 17.405-5.215 5.443-1.957 10.007 2.268 10.007 7.625v59.612h67.182v-60.208c0-5.443 5.584-9.014 10.489-6.889 5.782 2.098 11.452 3.826 16.979 5.16 5.669 1.359 11.451 2.352 17.291 3.033 4.11.48 7.087 4.193 6.605 8.305-.482 4.109-4.195 7.059-8.306 6.576-6.236-.709-12.586-1.842-19.049-3.402-3.033-.707-6.037-1.529-9.014-2.408v49.833h91.786v-49.89c-2.975.879-5.98 1.672-8.957 2.408-6.492 1.533-12.87 2.695-19.135 3.404zm66.927 210.446h-18.992v37.248h18.992z" fill="#2c3f58" data-original="#000000" style="" class=""/></g></g></svg>
