<?xml version="1.0"?>
<svg xmlns="http://www.w3.org/2000/svg" xmlns:xlink="http://www.w3.org/1999/xlink" xmlns:svgjs="http://svgjs.com/svgjs" version="1.1" width="512" height="512" x="0" y="0" viewBox="0 0 64 64" style="enable-background:new 0 0 512 512" xml:space="preserve" class=""><g><path xmlns="http://www.w3.org/2000/svg" d="M63,6H60a1,1,0,0,0,0,2h3a1,1,0,0,0,0-2Z" fill="#2c3f58" data-original="#000000" style=""/><path xmlns="http://www.w3.org/2000/svg" d="M31,15h3a1,1,0,0,0,0-2H31a1,1,0,0,0,0,2Z" fill="#2c3f58" data-original="#000000" style=""/><path xmlns="http://www.w3.org/2000/svg" d="M7,11H9A1,1,0,0,0,9,9H7a1,1,0,0,0,0,2Z" fill="#2c3f58" data-original="#000000" style=""/><path xmlns="http://www.w3.org/2000/svg" d="M35,8h4.333a1,1,0,0,0,1-1c0-2.757,1.794-5,4-5s4,2.243,4,5a1,1,0,0,0,1,1H56a1,1,0,0,0,0-2H50.271c-.417-3.388-2.921-6-5.938-6s-5.521,2.612-5.938,6H35a1,1,0,0,0,0,2Z" fill="#2c3f58" data-original="#000000" style=""/><rect xmlns="http://www.w3.org/2000/svg" x="9" y="59" width="4" height="2" fill="#2c3f58" data-original="#000000" style=""/><path xmlns="http://www.w3.org/2000/svg" d="M22,41H20a1,1,0,0,0,0,2h2a1,1,0,0,0,0-2Z" fill="#2c3f58" data-original="#000000" style=""/><path xmlns="http://www.w3.org/2000/svg" d="M56,54a6.771,6.771,0,0,1-3.555-.895,9.5,9.5,0,0,0-8.9,0,7.5,7.5,0,0,1-7.106,0A8.744,8.744,0,0,0,31.989,52a8.735,8.735,0,0,0-4.446,1.105A6.766,6.766,0,0,1,23.99,54a6.766,6.766,0,0,1-3.551-.894A8.73,8.73,0,0,0,15.993,52a8.731,8.731,0,0,0-4.445,1.105A6.758,6.758,0,0,1,8,54a6.762,6.762,0,0,1-3.552-.895A8.731,8.731,0,0,0,0,52v2a6.766,6.766,0,0,1,3.551.894A8.73,8.73,0,0,0,8,56a8.731,8.731,0,0,0,4.445-1.105A6.758,6.758,0,0,1,15.993,54a6.762,6.762,0,0,1,3.552.895A8.731,8.731,0,0,0,23.99,56a8.737,8.737,0,0,0,4.447-1.105A6.762,6.762,0,0,1,31.989,54a6.767,6.767,0,0,1,3.554.895,9.5,9.5,0,0,0,8.9,0,7.506,7.506,0,0,1,7.107,0,9.508,9.508,0,0,0,8.9,0A6.771,6.771,0,0,1,64,54V52a8.748,8.748,0,0,0-4.449,1.105A6.772,6.772,0,0,1,56,54Z" fill="#2c3f58" data-original="#000000" style=""/><path xmlns="http://www.w3.org/2000/svg" d="M63,36a1,1,0,0,0-1-1H59V27h3a1,1,0,0,0,1-1V21a1,1,0,0,0-1-1H55a1,1,0,0,0,0,2h6v3H11.414l3-3H51a1,1,0,0,0,0-2H14a1,1,0,0,0-.707.293l-5,5A1,1,0,0,0,9,27h5v8H2a1,1,0,0,0-1,1c0,5.148,5.9,9.076,10.545,11.107A6.755,6.755,0,0,1,8,48a6.762,6.762,0,0,1-3.552-.895A8.731,8.731,0,0,0,0,46v2a6.766,6.766,0,0,1,3.551.894A8.73,8.73,0,0,0,8,50a8.731,8.731,0,0,0,4.445-1.105A6.758,6.758,0,0,1,15.993,48a6.762,6.762,0,0,1,3.552.895A8.731,8.731,0,0,0,23.99,50a8.737,8.737,0,0,0,4.447-1.105A6.762,6.762,0,0,1,31.989,48a6.767,6.767,0,0,1,3.554.895,9.5,9.5,0,0,0,8.9,0,7.506,7.506,0,0,1,7.107,0,9.508,9.508,0,0,0,8.9,0A6.771,6.771,0,0,1,64,48V46c-.363,0-.689.02-1,.048Zm-6-1H39V27H57Zm2.551,12.105a7.512,7.512,0,0,1-7.11,0,9.5,9.5,0,0,0-8.9,0,7.5,7.5,0,0,1-7.106,0A8.744,8.744,0,0,0,31.989,46a8.735,8.735,0,0,0-4.446,1.105A6.766,6.766,0,0,1,23.99,48a6.766,6.766,0,0,1-3.551-.894A8.73,8.73,0,0,0,15.993,46a10.3,10.3,0,0,0-1.567.113.93.93,0,0,0-.1-.059C9.162,44.275,3.94,40.7,3.113,37H20a1,1,0,0,0,0-2H16V27H37v8H24a1,1,0,0,0,0,2H61v9.469A12.14,12.14,0,0,0,59.551,47.105Z" fill="#2c3f58" data-original="#000000" style=""/><path xmlns="http://www.w3.org/2000/svg" d="M32,63h1a1,1,0,0,0,0-2H32a1,1,0,0,0,0,2Z" fill="#2c3f58" data-original="#000000" style=""/><path xmlns="http://www.w3.org/2000/svg" d="M37,63a1,1,0,0,0,0-2H36a1,1,0,0,0,0,2Z" fill="#2c3f58" data-original="#000000" style=""/><path xmlns="http://www.w3.org/2000/svg" d="M52,41H51a1,1,0,0,0,0,2h1a1,1,0,0,0,0-2Z" fill="#2c3f58" data-original="#000000" style=""/><path xmlns="http://www.w3.org/2000/svg" d="M56,41H55a1,1,0,0,0,0,2h1a1,1,0,0,0,0-2Z" fill="#2c3f58" data-original="#000000" style=""/></g></svg>
