<?xml version="1.0"?>
<svg xmlns="http://www.w3.org/2000/svg" xmlns:xlink="http://www.w3.org/1999/xlink" xmlns:svgjs="http://svgjs.com/svgjs" version="1.1" width="512" height="512" x="0" y="0" viewBox="0 0 64 64" style="enable-background:new 0 0 512 512" xml:space="preserve" class=""><g><path xmlns="http://www.w3.org/2000/svg" d="m63 46.001h-3v-33.003c0-1.654-1.346-3-3-3h-50c-1.654 0-3 1.346-3 3v33.003h-3c-.553 0-1 .447-1 1v4.001c0 1.654 1.346 3 3 3h58c1.654 0 3-1.346 3-3v-4.001c0-.553-.447-1-1-1zm-7-18.003h2v6h-2zm2-2h-2v-2.001h2zm-4 16h-43.999v-21.998h43.999zm2-6h2v2.001h-2zm-49-24h50c.552 0 1 .448 1 1v1.003h-52v-1.003c0-.552.448-1 1-1zm-1 4.003h52v5.996h-2v-2.997c0-.553-.447-1-1-1h-45.999c-.553 0-1 .447-1 1v23.998c0 .553.447 1 1 1h45.999c.553 0 1-.447 1-1v-2.999h2v6.002h-32.979c-.007 0-.013-.004-.02-.004s-.013.004-.02.004h-18.981zm32 32.998h-11.999v-.998h11.999zm23 3.003h-58c-.552 0-1-.448-1-1v-3.001h22.001v1.998c0 .553.447 1 1 1h13.999c.553 0 1-.447 1-1v-1.998h22v3.001c0 .552-.448 1-1 1z" fill="#2c3f58" data-original="#000000" style=""/><path xmlns="http://www.w3.org/2000/svg" d="m33.03 14c.552 0 1-.447 1-1s-.448-1-1-1h-.01c-.552 0-.994.447-.994 1s.452 1 1.004 1z" fill="#2c3f58" data-original="#000000" style=""/><path xmlns="http://www.w3.org/2000/svg" d="m15.341 36.646c.003.003.004.008.007.011s.008.004.012.008c1.447 1.442 3.442 2.336 5.643 2.336 2.197 0 4.188-.891 5.636-2.329.007-.006.016-.008.021-.014s.008-.015.014-.021c1.438-1.446 2.327-3.436 2.33-5.63 0-.002.001-.004.001-.007 0-.002-.001-.004-.001-.006-.002-2.192-.891-4.181-2.325-5.626-.008-.008-.01-.019-.018-.026s-.019-.01-.026-.018c-1.447-1.436-3.437-2.324-5.632-2.324-2.199 0-4.193.893-5.641 2.333-.005.005-.011.006-.016.011s-.006.012-.011.017c-1.44 1.447-2.332 3.44-2.332 5.639 0 2.202.893 4.198 2.338 5.646zm.776-9.116.718.718c-.347.524-.602 1.116-.731 1.753h-1.011c.153-.909.51-1.749 1.024-2.471zm10.796 2.471h-1.011c-.13-.638-.385-1.229-.732-1.754l.718-.718c.514.723.871 1.563 1.025 2.472zm-1.026 4.472-.717-.719c.348-.524.602-1.115.731-1.753h1.011c-.153.909-.51 1.749-1.025 2.472zm-4.885-6.472c1.654 0 3.001 1.346 3.001 2.999 0 1.654-1.347 3.001-3.001 3.001-.826 0-1.576-.337-2.119-.88-.543-.543-.879-1.292-.88-2.117 0-.001.001-.002.001-.003s-.001-.002-.001-.004c.002-1.651 1.347-2.996 2.999-2.996zm-2.752 7.167c.524.348 1.115.602 1.752.731v1.011c-.909-.153-1.748-.51-2.47-1.023zm3.752.732c.638-.131 1.229-.385 1.753-.732l.718.718c-.722.515-1.562.871-2.471 1.024zm1.753-9.066c-.524-.348-1.115-.603-1.753-.732v-1.01c.909.153 1.749.51 2.472 1.023zm-3.753-.731c-.637.13-1.229.384-1.753.731l-.718-.718c.722-.515 1.562-.871 2.471-1.024zm-3.898 5.898c.13.638.384 1.229.731 1.753l-.718.719c-.515-.723-.871-1.563-1.024-2.472z" fill="#2c3f58" data-original="#000000" style=""/><path xmlns="http://www.w3.org/2000/svg" d="m33 30h16.999c.553 0 1-.447 1-1v-3.998c0-.553-.447-1-1-1h-16.999c-.553 0-1 .447-1 1v3.998c0 .553.447 1 1 1zm1-3.998h14.999v1.998h-14.999z" fill="#2c3f58" data-original="#000000" style=""/><path xmlns="http://www.w3.org/2000/svg" d="m33 36.999h16.999c.553 0 1-.447 1-1v-3.998c0-.553-.447-1-1-1h-16.999c-.553 0-1 .447-1 1v3.998c0 .553.447 1 1 1zm1-3.998h14.999v1.998h-2.939c.537-.017.971-.452.971-.994 0-.553-.448-1-1-1h-.011c-.552 0-.994.447-.994 1 0 .542.438.978.976.994h-2.942c.537-.017.971-.452.971-.994 0-.553-.448-1-1-1h-.011c-.552 0-.994.447-.994 1 0 .542.438.978.976.994h-2.942c.537-.017.971-.452.971-.994 0-.553-.448-1-1-1h-.011c-.552 0-.994.447-.994 1 0 .542.438.978.976.994h-2.942c.537-.017.971-.452.971-.994 0-.553-.448-1-1-1h-.011c-.552 0-.994.447-.994 1 0 .542.438.978.976.994h-3.002z" fill="#2c3f58" data-original="#000000" style=""/></g></svg>
