<?xml version="1.0"?>
<svg xmlns="http://www.w3.org/2000/svg" xmlns:xlink="http://www.w3.org/1999/xlink" xmlns:svgjs="http://svgjs.com/svgjs" version="1.1" width="512" height="512" x="0" y="0" viewBox="0 0 480 480" style="enable-background:new 0 0 512 512" xml:space="preserve"><g>
<g xmlns="http://www.w3.org/2000/svg">
	<g>
		<path d="M240,0C147.368,0,72,107.664,72,240s75.368,240,168,240s168-107.664,168-240S332.632,0,240,0z M240,464    c-83.816,0-152-100.488-152-224S156.184,16,240,16s152,100.488,152,224S323.816,464,240,464z" fill="#2c3f58" data-original="#000000" style=""/>
	</g>
</g>
<g xmlns="http://www.w3.org/2000/svg">
	<g>
		<path d="M240,32c-73.72,0-136,95.256-136,208s62.28,208,136,208s136-95.256,136-208S313.72,32,240,32z M240,432    c-65.048,0-120-87.928-120-192S174.952,48,240,48s120,87.928,120,192S305.048,432,240,432z" fill="#2c3f58" data-original="#000000" style=""/>
	</g>
</g>
<g xmlns="http://www.w3.org/2000/svg">
	<g>
		<path d="M302.14,271.5c-3.828-2.209-8.723-0.896-10.932,2.932l-56,96.992c-0.702,1.216-1.072,2.596-1.072,4c0,4.418,3.581,8,8,8    c2.861,0.003,5.506-1.522,6.936-4l56-96.992C307.281,278.604,305.968,273.709,302.14,271.5z" fill="#2c3f58" data-original="#000000" style=""/>
	</g>
</g>
<g xmlns="http://www.w3.org/2000/svg">
	<g>
		<path d="M337.86,273.676c-3.828-2.209-8.723-0.896-10.932,2.932l-56,96.992c-0.701,1.214-1.07,2.59-1.072,3.992    c-0.005,4.418,3.574,8.004,7.992,8.008c2.867,0.009,5.519-1.517,6.952-4l55.992-96.992    C343.001,280.78,341.688,275.885,337.86,273.676z" fill="#2c3f58" data-original="#000000" style=""/>
	</g>
</g>
<g xmlns="http://www.w3.org/2000/svg">
</g>
<g xmlns="http://www.w3.org/2000/svg">
</g>
<g xmlns="http://www.w3.org/2000/svg">
</g>
<g xmlns="http://www.w3.org/2000/svg">
</g>
<g xmlns="http://www.w3.org/2000/svg">
</g>
<g xmlns="http://www.w3.org/2000/svg">
</g>
<g xmlns="http://www.w3.org/2000/svg">
</g>
<g xmlns="http://www.w3.org/2000/svg">
</g>
<g xmlns="http://www.w3.org/2000/svg">
</g>
<g xmlns="http://www.w3.org/2000/svg">
</g>
<g xmlns="http://www.w3.org/2000/svg">
</g>
<g xmlns="http://www.w3.org/2000/svg">
</g>
<g xmlns="http://www.w3.org/2000/svg">
</g>
<g xmlns="http://www.w3.org/2000/svg">
</g>
<g xmlns="http://www.w3.org/2000/svg">
</g>
</g></svg>
