<?xml version="1.0" encoding="utf-8"?>
<!-- Generator: Adobe Illustrator 24.0.1, SVG Export Plug-In . SVG Version: 6.00 Build 0)  -->
<svg version="1.1" id="Capa_1" xmlns="http://www.w3.org/2000/svg" xmlns:xlink="http://www.w3.org/1999/xlink" x="0px" y="0px"
	 viewBox="0 0 941.2 941.2" style="enable-background:new 0 0 941.2 941.2;" xml:space="preserve">
<style type="text/css">
	.st0{fill:#2C3F58;}
</style>
<g>
	<g>
		<path class="st0" d="M119.6,293.5l217.8,28c7.6,19.3,45.9,114.3,53.1,131.3c0,0,0,0-0.1,0c-63.1,31.2-126.2,62.3-189.3,93.5
			c21.9-4,44.1-6,66.4-6c29.2,0,57.8,3.5,85.1,10.4c55.1,14,104.9,36.4,153,58.1c42.9,19.3,83.5,37.6,124,48.1
			c5.7,1.5,11.2,2.8,16.7,3.9c-48-98.3-177.1-363.2-202.6-421.5c-12-27.5-28.5-37.7-51.9-40.7L136,165.7
			c-35.3-4.5-67.6,20.4-72.2,55.7C59.4,256.7,84.3,289,119.6,293.5z"/>
		<path class="st0" d="M16.7,752.9c7.1,5.1,15.2,7.5,23.3,7.5c1.8,0,3.5-0.1,5.2-0.4c10.6-1.4,20.6-7,27.3-16.3
			c25.9-36.1,66-64.5,112.7-80.1c26.8-8.9,54.8-13.4,82.3-13.4c99.7,0,185.2,59.6,275.2,93.9c48.2,18.4,98.5,32,153.2,32
			c23,0,46.8-2.4,71.5-7.9c58.1-12.8,107.9-40.4,143.9-79.1c8.6-9.3,16.4-19.1,23.3-29.6c12.2-18.4,7.1-43.2-11.3-55.4
			c-6.8-4.5-14.4-6.6-22-6.6c-13,0-25.7,6.3-33.4,17.9c-3.1,4.7-6.5,9.2-10.2,13.6c-25,29.8-62.5,51.2-107.5,61.1
			c-41.5,9.1-87.3,6.4-128.2-4.2c-43-11.2-84.6-29.9-128.8-49.8c-47-21.1-95.5-43-148.1-56.4c-25-6.4-51.2-9.5-77.7-9.5
			c-36.1,0-72.8,5.9-107.7,17.5c-30.5,10.2-58.8,24.4-84.2,42.3c-26.8,18.9-49.7,41.4-68.1,67c-1.2,1.7-2.2,3.4-3.1,5.2
			C-4.4,719.5,0.4,741.2,16.7,752.9z"/>
		<circle class="st0" cx="740.9" cy="426.2" r="141.1"/>
	</g>
</g>
</svg>
