<?xml version="1.0"?>
<svg xmlns="http://www.w3.org/2000/svg" xmlns:xlink="http://www.w3.org/1999/xlink" xmlns:svgjs="http://svgjs.com/svgjs" version="1.1" width="512" height="512" x="0" y="0" viewBox="0 0 60 60" style="enable-background:new 0 0 512 512" xml:space="preserve"><g><g xmlns="http://www.w3.org/2000/svg" id="Page-1" fill="none" fill-rule="evenodd"><g id="013---Reef" fill="rgb(0,0,0)" fill-rule="nonzero"><path id="Shape" d="m4 60h52c1.5853853.0016052 3.0221015-.9332711 3.6628285-2.3834152.6407269-1.4501441.3645303-3.1418482-.7041479-4.3129058-1.0686783-1.1710575-2.7281301-1.600437-4.2306806-1.094679-.5752567-1.8417248-2.0011189-3.2944277-3.8317966-3.903927-1.8306777-.6094994-3.8427697-.3014168-5.4072034.827927-2.5762033-1.4867107-5.5160223-2.2253882-8.489-2.133-3.2 0-7.186.767-9.45 2.856-1.0206645-.6889601-2.1587171-1.1854602-3.358-1.465.5829193-3.1431052.8668537-6.3343533.848-9.531 0-.838-.024-1.637-.092-2.377 3.0978475-.6605716 5.9192486-2.2536076 8.085-4.565.561745.0966277 1.1348406.1080896 1.7.034.5919903.4378006 1.2517355.7756118 1.953 1 .5055435.1714927 1.0562094-.0874028 1.2466562-.5861151s-.0474854-1.0587553-.5386562-1.2678849c.8491253-.4559645 1.6413018-1.0108237 2.36-1.653 1.3053093 1.1255743 2.9765194 1.7360994 4.7 1.717.5867434-.0022444 1.1718612-.0618614 1.747-.178.347707-.0760789.628768-.3312427.738-.67.1121473-.3431661.0362483-.7200042-.2-.993-.015-.011-.739-.876-.739-3.321-.1105566-1.1444906.1368226-2.2950833.708-3.293.2609711-.2609027.3570457-.6443252.2499341-.9974587s-.3999986-.6185771-.7619341-.6905413c-2.270668-.5452055-4.6652084.0253831-6.446 1.536-1.5501356-1.5108735-3.5897539-2.4171734-5.75-2.555-3.22 0-5.937 2.558-7.271 4.083-.7814506.8828884-.9443902 2.1535002-.411 3.205-.8178352.5975835-1.7445174 1.0296728-2.728 1.272-.2-.7-.46-1.448-.757-2.219-.323-.84-.89-2.1-1.748-3.836 2.3909384-1.4695454 4.113321-3.8148565 4.8-6.536.3348619-1.3440857-.0494937-2.7657478-1.016-3.758-.9950097-1.0193653-2.4524803-1.4408849-3.838-1.11-1.4653642.358848-2.6009313 1.5168863-2.931 2.989-.1345631.4912433-.4094488.9325894-.791 1.27-.5450481-1.0826507-1.0239273-2.1973641-1.434-3.338-.007-.028-.026-.1-.035-.123-.6833352-1.97522903-2.769231-3.09434718-4.7928545-2.57144705-2.02362356.52290014-3.30624924 2.51243725-2.9471455 4.57144705.36505455 2.0528531.91530258 4.068421 1.644 6.022-.18540072-.0662029-.36363901-.1509666-.532-.253-.95425316-.6362027-2.13634872-.8304249-3.244-.533-1.12037214.3016068-2.05627403 1.071685-2.568 2.113-.86058246 1.8695946-.20172373 4.0874671 1.54 5.184 2.28129672 1.3118854 4.89295754 1.9369339 7.521 1.8.4712278 1.7839152.7065661 3.6219076.7 5.467.019.35-.007.895-.011 1.342-1.6131484-.1113398-3.1393483-.7724343-4.324-1.873-.84122228-.8425097-2.01473332-1.2653404-3.2-1.153-1.19959571.1148058-2.28500067.760033-2.959 1.759-1.07780988 1.6657432-.79820864 3.8658079.662 5.209 2.2884347 2.1522397 5.19884253 3.5257142 8.315 3.924-.4254104 1.4233935-.9411227 2.8182217-1.544 4.176-2.61058217.3938953-4.65692848 2.4479545-5.041 5.06-.34491515-.0953073-.70115956-.1434121-1.059-.143-2.209139 0-4 1.790861-4 4s1.790861 4 4 4zm40.444-37.159c-.3160847 1.0224576-.4659917 2.0890255-.444 3.159-.0219917 1.0699745.1279153 2.1365424.444 3.159-1.1893947.016552-2.3471634-.3831665-3.273-1.13l.1-.112c.972-1.0931831.972-2.7408169 0-3.834-.031-.036-.067-.075-.1-.112.9254217-.7475826 2.0834697-1.1473976 3.273-1.13zm-16.209 2.559c1.11-1.27 3.335-3.4 5.765-3.4s4.655 2.13 5.765 3.4c.3140394.338362.3140394.861638 0 1.2-1.1700178 1.4273881-2.6950967 2.5217064-4.422 3.173-.184219-.230955-.302716-.5073329-.343-.8-.0074559-.5522847-.4612153-.9939558-1.0135-.9865-.5522847.0074559-.9939558.4612153-.9865 1.0135.0143807.3126822.0767771.6212914.185.915-2.1-.394-3.966-2.189-4.951-3.315-.3137576-.3386237-.3133216-.8618997.001-1.2zm-23.511 12.15c-.75794497-.6679728-.92663175-1.7838358-.4-2.646.33034296-.5040923.87039215-.8323376 1.46997494-.8934601s1.19475839.151396 1.62002506.5784601c1.49367671 1.4160884 3.428085 2.2766883 5.48 2.438h.01.02.015c.6540577.087133 1.3131639.1308953 1.973.131.7639894.0074276 1.5270887-.0541559 2.28-.184.5409426-.1079493.8923145-.6335356.7853023-1.1746643s-.631989-.8934105-1.1733023-.7873357c-.5554178.0913737-1.1171292.139186-1.68.143v-.017c.029-.517.055-1.105.032-1.485.005477-2.0008961-.2513781-3.9938765-.764-5.928-.2476238-.8899967-1.0684787-1.4978085-1.992-1.475-2.2285509.1200966-4.4448936-.400416-6.387-1.5-.89017785-.5419274-1.24092932-1.6596268-.82-2.613.25355733-.5234604.721733-.9111776 1.2832767-1.0627387.5615437-.1515612 1.16122049-.0520584 1.6437233.2727387.29664186.1863192.61245688.3402036.942.459.70582411.2517475 1.4935476.0733215 2.022-.458.5518692-.5371105.746335-1.3433656.5-2.073-.650896-1.8610303-1.1564131-3.7697586-1.512-5.709-.17523462-1.0163305.4459982-2.0007026 1.4388206-2.2798775.9928223-.279175 2.0360448.2371635 2.4161794 1.1958775.007.027.026.094.035.121.575405 1.6078567 1.2700006 3.1705296 2.078 4.675.251836.4813748.8419279.6736319 1.329.433 1.2916646-.6029523 2.2617122-1.7321853 2.663-3.1.135698-.7346728.6727936-1.3307242 1.3894175-1.5419308.716624-.2112066 1.4911322-.0017169 2.0035825.5419308.4850107.4971842.6783173 1.209884.511 1.884-.5658123 2.2215079-1.9761828 4.1345315-3.931 5.332l-.017.013-.639.374c-.735993.3857811-1.5290447.6511445-2.349.786-.5522847 0-1 .4477153-1 1s.4477153 1 1 1c.8036848-.0603649 1.59058-.2610655 2.325-.593.792 1.653 1.345 2.884 1.642 3.653.278.719.514 1.413.705 2.069.3037813 1.0475234 1.3868837 1.6622573 2.442 1.386 1.260843-.3231479 2.4454897-.892023 3.486-1.674.9691153.9764462 2.0903774 1.7890235 3.32 2.406-1.8177167 1.6402625-4.0343077 2.7744205-6.428 3.289-.9466021.2278383-1.5895779 1.1068539-1.52 2.078.045.7.068 1.451.068 2.262.0189394 3.0807586-.2556341 6.1563166-.82 9.185-.4-.036-.808-.061-1.22-.061-1.8606031-.0139362-3.7010225.386051-5.388 1.171-.857917-1.0320339-2.0364804-1.7473388-3.348-2.032.645468-1.5730406 1.1931771-3.1844407 1.64-4.825.0787341-.2876439.0249778-.595418-.1466007-.8393419s-.4430719-.3985397-.7403993-.4216581c-3.08748867-.1681626-6.01991006-1.4068304-8.293-3.503zm-.724 16.45c.51723974-.000649 1.01438845.2002192 1.386.56.317692.3060506.7983963.3677793 1.1831075.1519264s.5825388-.6582908.4868925-1.0889264c-.0411672-.2050267-.05994397-.4139183-.056-.623-.00556927-1.7465099 1.12593895-3.2934476 2.79208065-3.8171839 1.66614165-.5237363 3.47922565.0975962 4.47391935 1.5331839.4678039.6645958.7151032 1.4593116.707 2.272-.0032018.2652221.0990966.5208513.2843866.7106423s.4383908.2981941.7036134.3013577h.012c.5480173.0000332.9939718-.4410158 1-.989.005419-.7085735-.1175667-1.4122682-.363-2.077 1.3783437-.6258305 2.8762681-.9445234 4.39-.934 1.8871067-.050716 3.7471868.4568316 5.347 1.459-.2311619.47733-.357005.9987775-.369 1.529-.0032018.2652221.0990966.5208513.2843866.7106423s.4383908.2981941.7036134.3013577h.012c.5480173.0000332.9939718-.4410158 1-.989.0272453-.4583955.2095583-.8939013.517-1.235 1.54-1.914 5.364-2.776 8.505-2.776 2.4538493-.0642214 4.8843259.4908641 7.067 1.614-.461608.6628037-.7872194 1.4105542-.958 2.2-.0550782.2596628-.0046595.5305701.1401473.7530323.1448067.2224621.372119.3782245.6318527.4329677.0680292.0146243.1374166.0219988.207.022.4726841-.0002609.8806271-.331454.978-.794.1857671-.8766088.6544811-1.6678712 1.334-2.252 1.1549528-1.0044284 2.7836654-1.25733 4.1888209-.6504274 1.4051554.6069025 2.3376242 1.9660074 2.3981791 3.4954274.0158038.3879163.2547051.7316271.6127928.881634.3580876.1500068.7706368.0791956 1.0582072-.181634.3653754-.3370888.8448853-.5232473 1.342-.521 1.1045695 0 2 .8954305 2 2s-.8954305 2-2 2h-52c-1.1045695 0-2-.8954305-2-2s.8954305-2 2-2z" fill="#2c3f58" data-original="#000000" style=""/><circle id="Oval" cx="17" cy="45" r="1" fill="#2c3f58" data-original="#000000" style=""/><circle id="Oval" cx="20" cy="41" r="1" fill="#2c3f58" data-original="#000000" style=""/><circle id="Oval" cx="20" cy="33" r="1" fill="#2c3f58" data-original="#000000" style=""/><circle id="Oval" cx="18" cy="28" r="1" fill="#2c3f58" data-original="#000000" style=""/><circle id="Oval" cx="13" cy="23" r="1" fill="#2c3f58" data-original="#000000" style=""/><path id="Shape" d="m2 7c0 1.65685425 1.34314575 3 3 3s3-1.34314575 3-3-1.34314575-3-3-3-3 1.34314575-3 3zm4 0c0 .55228475-.44771525 1-1 1s-1-.44771525-1-1 .44771525-1 1-1 1 .44771525 1 1z" fill="#2c3f58" data-original="#000000" style=""/><path id="Shape" d="m12 4c0 2.209139 1.790861 4 4 4s4-1.790861 4-4-1.790861-4-4-4-4 1.790861-4 4zm6 0c0 1.1045695-.8954305 2-2 2s-2-.8954305-2-2 .8954305-2 2-2 2 .8954305 2 2z" fill="#2c3f58" data-original="#000000" style=""/><circle id="Oval" cx="9" cy="3" r="1" fill="#2c3f58" data-original="#000000" style=""/><path id="Shape" d="m56.957 5.709c-.107291-.35294145-.4001756-.6181519-.762-.69-2.2709824-.545211-4.6658246.02536099-6.447 1.536-1.5493711-1.51081067-3.5883485-2.41714106-5.748-2.555-3.22 0-5.937 2.558-7.271 4.083-.972 1.0931831-.972 2.7408169 0 3.834 1.334 1.525 4.051 4.083 7.271 4.083.2443899-.0018503.4884666-.0178772.731-.048.5919903.4378006 1.2517355.7756118 1.953 1 .5055435.1714927 1.0562094-.0874028 1.2466562-.5861151s-.0474854-1.0587553-.5386562-1.2678849c.8491253-.4559645 1.6413018-1.0108237 2.36-1.653 1.3053093 1.1255743 2.9765194 1.7360994 4.7 1.717.5867434-.0022444 1.1718612-.0618614 1.747-.178.347707-.0760789.628768-.3312427.738-.67.1121473-.3431661.0362483-.7200042-.2-.993-.013-.011-.737-.876-.737-3.321-.1105566-1.14449057.1368226-2.29508328.708-3.293.2608416-.26120884.3565656-.64487394.249-.998zm-18.723 4.891c-.3140394-.338362-.3140394-.86163798 0-1.2 1.111-1.27 3.336-3.4 5.766-3.4s4.655 2.13 5.765 3.4c.3140394.33836202.3140394.861638 0 1.2-1.1700178 1.4273881-2.6950967 2.5217064-4.422 3.173-.184219-.230955-.302716-.5073329-.343-.8-.0074559-.5522847-.4612153-.9939558-1.0135-.9865-.5522847.0074559-.9939558.4612153-.9865 1.0135.0143807.3126822.0767771.6212914.185.915-2.104-.394-3.966-2.189-4.951-3.315zm16.21 2.559c-1.1893947.016552-2.3471634-.3831665-3.273-1.13l.1-.112c.972-1.0931831.972-2.7408169 0-3.834-.031-.036-.067-.075-.1-.112.9254217-.74758264 2.0834697-1.14739755 3.273-1.13-.3160847 1.02245762-.4659917 2.08902548-.444 3.159-.0219917 1.0699745.1279153 2.1365424.444 3.159z" fill="#2c3f58" data-original="#000000" style=""/><circle id="Oval" cx="42" cy="9" r="1" fill="#2c3f58" data-original="#000000" style=""/><circle id="Oval" cx="32" cy="25" r="1" fill="#2c3f58" data-original="#000000" style=""/><path id="Shape" d="m48.051 45.316c.0837568.2517272.2641089.4598559.501359.5785747.2372502.1187189.5119521.1382971.763641.0544253.7072045-.2263107 1.3721589-.5679108 1.968-1.011.2373282.0339636.4763662.0546624.716.062 1.5742201-.0460842 3.0984847-.5629966 4.376-1.484 1.0753442-.7372174 2.0501941-1.6112207 2.9-2.6.972-1.0931831.972-2.7408169 0-3.834-.8495619-.9890182-1.8244449-1.8630511-2.9-2.6-2.5847831-1.9688337-6.1662169-1.9688337-8.751 0-.4825729.3271404-.9429166.6859279-1.378 1.074-.563814-.4882439-1.2013729-.8841447-1.889-1.173-1.4460768-.5766663-3.0323633-.7042104-4.552-.366-.3480887.0757609-.6295907.3309793-.739.67-.1115352.3432017-.0356978.7197344.2.993.1271157.1726342.2281937.362998.3.565.3169777.8827593.4639 1.8175652.433 2.755.0319281.9365115-.1136322 1.8706076-.429 2.753-.0719012.1909572-.1658718.3728575-.28.542-.2604402.2612312-.3559176.6446259-.2484064.9974887.1075113.3528628.4005497.6178833.7624064.6895113.5764046.1168105 1.1628827.1767646 1.751.179.9602452.0058695 1.9120598-.1793944 2.8-.545.6876271-.2888553 1.325186-.6847561 1.889-1.173.4352269.3883215.8959202.747121 1.379 1.074.3170446.210738.6455506.4037019.984.578-.4745781.2005929-.716591.7311096-.557 1.221zm-4.461-3.548c-.6467353.2640152-1.3394762.3969208-2.038.391.3179656-1.0221186.4692359-2.0887769.448-3.159.0212359-1.0702231-.1300344-2.1368814-.448-3.159.6985238-.0059208 1.3912647.1269848 2.038.391.4455788.1886583.8618122.4402169 1.236.747-.032.036-.065.068-.1.1-.972 1.0931831-.972 2.7408169 0 3.834.032.036.065.068.1.1-.3736883.3096002-.7899464.5638679-1.236.755zm2.644-2.168c-.3121104-.3391169-.3121104-.8608831 0-1.2.7352182-.853197 1.5751903-1.6101798 2.5-2.253 1.9063235-1.5278179 4.6176765-1.5278179 6.524 0 .9250959.6428444 1.7651048 1.4001964 2.5 2.254.3111564.3394886.3111564.8605114 0 1.2-.7352182.853197-1.5751903 1.6101798-2.5 2.253-.7334409.5209063-1.5670248.8838967-2.448 1.066.1088899-.2954666.172933-.60557.19-.92.0074558-.5522847-.4342153-1.0060441-.9865-1.0135-.5522847-.0074558-1.0060441.4342153-1.0135.9865-.028257.2271239-.1075733.4449018-.232.637-.035.058-.088.109-.129.165-.676032-.2097388-1.3165678-.5202301-1.9-.921-.9268543-.6425092-1.7685581-1.3998746-2.505-2.254z" fill="#2c3f58" data-original="#000000" style=""/><path id="Shape" d="m54 39c.4770802.0001019.8877939-.3368207.9809602-.8047155.0931664-.4678948-.1571635-.9364432-.5978948-1.1190942-.4407313-.1826511-.9491112-.0285326-1.2142288.3681009-.2651177.3966335-.2131323.9253112.1241634 1.2627088.1874927.1875494.4418052.2929434.707.293z" fill="#2c3f58" data-original="#000000" style=""/><circle id="Oval" cx="33" cy="10" r="1" fill="#2c3f58" data-original="#000000" style=""/><circle id="Oval" cx="35" cy="6" r="1" fill="#2c3f58" data-original="#000000" style=""/></g></g></g></svg>
