<?xml version="1.0" encoding="utf-8"?>
<!-- Generator: Adobe Illustrator 24.0.1, SVG Export Plug-In . SVG Version: 6.00 Build 0)  -->
<svg version="1.1" id="Layer_1" xmlns="http://www.w3.org/2000/svg" xmlns:xlink="http://www.w3.org/1999/xlink" x="0px" y="0px"
	 viewBox="0 0 200 200" style="enable-background:new 0 0 200 200;" xml:space="preserve">
<style type="text/css">
	.st0{fill:#2C3F58;}
</style>
<title></title>
<path class="st0" d="M171.3,41.7c-18.8-18.9-49.4-19-68.3-0.2c-0.1,0.1-0.1,0.1-0.2,0.2l-2.5,3l-2.5-2.5C79,23.3,48.4,23.2,29.5,42
	c-0.1,0.1-0.1,0.1-0.2,0.2c-19,18.5-19,49-1,68l50,53c11.3,12,30.3,12.6,42.3,1.2c0.4-0.4,0.8-0.8,1.2-1.2l50.5-53.5
	C189.8,90.2,189.3,60.2,171.3,41.7z M157.3,95.2l-50.5,53.5c-4,4-10.5,4-14.5,0l-50-53c-10.5-11.5-10.5-29,0.5-40s29-11,40.5,0
	l2.5,2.5c8,8,20.5,8,28,0l2.5-2.5c11.1-11,28.9-11,40,0c11.2,10.5,11.7,28.1,1.2,39.3C157.4,95,157.4,95.1,157.3,95.2z"/>
</svg>
