<?xml version="1.0"?>
<svg xmlns="http://www.w3.org/2000/svg" xmlns:xlink="http://www.w3.org/1999/xlink" xmlns:svgjs="http://svgjs.com/svgjs" version="1.1" width="512" height="512" x="0" y="0" viewBox="0 0 512 512" style="enable-background:new 0 0 512 512" xml:space="preserve"><g><g xmlns="http://www.w3.org/2000/svg"><g><path d="m430.999 0h-349.998c-20.678 0-37.5 16.822-37.5 37.5v408.5c0 20.678 16.822 37.5 37.5 37.5 4.142 0 7.5-3.357 7.5-7.5s-3.358-7.5-7.5-7.5c-12.407 0-22.5-10.094-22.5-22.5v-408.5c0-12.406 10.093-22.5 22.5-22.5h349.998c12.406 0 22.5 10.094 22.5 22.5v408.5c0 12.406-10.094 22.5-22.5 22.5-9.949 0-310.497 0-320.607 0-4.705-.05-8.421 4.238-7.433 9.034l3.275 16.378c2.096 10.481 11.375 18.088 22.063 18.088h45.406c10.688 0 19.967-7.607 22.063-18.088l2.083-10.412h106.302l2.082 10.412c2.097 10.481 11.375 18.088 22.064 18.088h45.406c10.688 0 19.967-7.607 22.063-18.088l2.082-10.412h33.15c20.678 0 37.5-16.822 37.5-37.5v-408.5c.001-20.678-16.821-37.5-37.499-37.5zm-249.942 490.971c-.699 3.493-3.792 6.029-7.354 6.029h-45.406c-3.563 0-6.656-2.536-7.354-6.029l-1.494-7.471h63.103zm200 0c-.698 3.493-3.792 6.029-7.354 6.029h-45.406c-3.562 0-6.656-2.536-7.354-6.029l-1.494-7.471h63.104z" fill="#2c3f58" data-original="#000000" style=""/><path d="m256 144.25c-53.923 0-97.5 43.565-97.5 97.5 0 53.922 43.565 97.5 97.5 97.5 53.923 0 97.5-43.565 97.5-97.5 0-53.923-43.565-97.5-97.5-97.5zm51.938 90c-1.274-8.771-4.75-16.968-9.926-23.905l21.396-21.396c10.76 12.881 17.248 28.562 18.744 45.301zm-83.363 49.532c6.767 5.08 14.804 8.594 23.924 9.909v30.211c-16.738-1.496-32.419-7.983-45.301-18.744zm38.925 9.907c8.771-1.274 16.971-4.747 23.908-9.924l21.392 21.393c-12.881 10.76-28.562 17.248-45.301 18.744v-30.213zm29.467-45.679c-3.413 20.355-22.802 34.127-43.227 30.707-20.355-3.413-34.13-22.805-30.707-43.227 1.257-7.496 4.647-14.443 10.454-20.291 2.761-2.781 2.89-7.181.406-10.118.009-.007.017-.014.026-.02l-26.72-26.72c12.881-10.76 28.562-17.248 45.301-18.744v37.789c.01-.002.021-.003.031-.005.318 3.849 3.535 6.874 7.466 6.876 23.334.012 40.783 21.003 36.97 43.753zm-5.543-48.291c-6.795-5.102-14.84-8.601-23.924-9.91v-30.211c16.739 1.496 32.419 7.983 45.301 18.744zm-94.832-10.77 21.351 21.351c-5.091 6.758-8.562 14.785-9.879 23.95h-30.216c1.495-16.738 7.983-32.42 18.744-45.301zm-18.745 60.301h30.213c1.274 8.771 4.75 16.969 9.926 23.905l-21.395 21.396c-10.76-12.881-17.248-28.562-18.744-45.301zm145.561 45.301-21.374-21.374c5.204-6.931 8.618-14.993 9.901-23.927h30.217c-1.496 16.738-7.984 32.419-18.744 45.301z" fill="#2c3f58" data-original="#000000" style=""/><path d="m400.999 60h-289.998c-4.142 0-7.5 3.357-7.5 7.5v348.5c0 4.143 3.358 7.5 7.5 7.5h289.998c4.143 0 7.5-3.357 7.5-7.5v-27h7.5c4.143 0 7.5-3.357 7.5-7.5v-80c0-4.143-3.357-7.5-7.5-7.5h-7.5v-104.5h7.5c4.143 0 7.5-3.357 7.5-7.5v-80c0-4.143-3.357-7.5-7.5-7.5h-7.5v-27c0-4.143-3.358-7.5-7.5-7.5zm7.5 114.5h-15v-17.5c0-4.143-3.357-7.5-7.5-7.5s-7.5 3.357-7.5 7.5v25c0 4.143 3.357 7.5 7.5 7.5h7.5v104.5h-7.5c-4.143 0-7.5 3.357-7.5 7.5v25c0 4.143 3.357 7.5 7.5 7.5s7.5-3.357 7.5-7.5v-17.5h15v65h-15v-17.5c0-4.143-3.357-7.5-7.5-7.5s-7.5 3.357-7.5 7.5v25c0 4.143 3.357 7.5 7.5 7.5h7.5v19.5h-274.998v-333.5h274.998v19.5h-7.5c-4.143 0-7.5 3.357-7.5 7.5v25c0 4.143 3.357 7.5 7.5 7.5s7.5-3.357 7.5-7.5v-17.5h15z" fill="#2c3f58" data-original="#000000" style=""/></g></g></g></svg>
