<?xml version="1.0"?>
<svg xmlns="http://www.w3.org/2000/svg" xmlns:xlink="http://www.w3.org/1999/xlink" xmlns:svgjs="http://svgjs.com/svgjs" version="1.1" width="512" height="512" x="0" y="0" viewBox="0 0 512 512" style="enable-background:new 0 0 512 512" xml:space="preserve" class=""><g><g xmlns="http://www.w3.org/2000/svg"><path d="m232.655 178.763c1.561-46.238-9.66-113.157-46.416-149.585-17.526-17.369-38.682-25.648-62.909-24.616-21.93.925-43.667 10.635-62.859 28.079-4.087 3.715-4.389 10.04-.675 14.127 3.714 4.086 10.041 4.389 14.127.674 15.683-14.254 33.059-22.172 50.255-22.897 18.423-.788 34.572 5.55 47.981 18.84 30.113 29.845 42.041 89.159 40.504 134.717-.276 8.563-.816 17.388-1.481 26.281-17.675-24.308-41.529-46.172-69.921-63.95l-2.516-19.832c-1.009-7.93-5.051-14.995-11.384-19.895-6.33-4.897-14.185-7.041-22.113-6.029-16.379 2.09-28.006 17.105-25.92 33.464l2.517 19.834c-24.88 26.287-43.448 55.853-54.202 86.179-1.483-8.309-2.625-16.464-3.745-24.506-.782-5.615-1.591-11.42-2.502-17.17-3.367-21.201-.651-46.835 7.649-72.18 1.72-5.249-1.143-10.897-6.391-12.617-5.248-1.718-10.897 1.142-12.616 6.392-9.27 28.305-12.252 57.265-8.396 81.539.882 5.56 1.677 11.272 2.446 16.795 2.827 20.291 5.763 41.259 13.872 64.334-2.742 28.172 1.952 55.514 14.001 80.469 3.463 7.194 9.537 12.61 17.102 15.251.07.024.141.04.21.064 2.292 15.304 4.714 34.425 7.462 56.121 5.808 45.528 44.745 78.876 89.46 78.876 3.786 0 7.618-.239 11.471-.731 49.37-6.264 84.438-51.546 78.172-100.946l-7.131-55.993c.164-.105.332-.204.494-.313 6.667-4.454 11.189-11.221 12.731-19.036 6.483-32.518 1.926-65.697-13.149-96.931 1.649-18.197 3.293-36.909 3.872-54.809zm-133.138-20.304c2.137-2.183 3.158-5.224 2.775-8.255l-3.119-24.587c-.692-5.426 3.17-10.405 8.606-11.099.425-.054.849-.081 1.27-.081 2.19 0 4.309.722 6.075 2.088 2.105 1.629 3.449 3.972 3.782 6.596l3.118 24.581c.386 3.035 2.138 5.727 4.758 7.306 55.994 33.761 110.497 96.565 95.536 171.601-.51 2.581-2.01 4.818-4.224 6.297-2.221 1.484-4.875 2.018-7.448 1.511-5.378-1.076-8.879-6.328-7.801-11.716 5.759-28.927-.532-58.901-18.194-86.681-18.372-28.897-44.228-48.918-62.685-60.626-4.053-2.573-9.368-1.898-12.654 1.606-14.947 15.95-34.981 41.803-45.537 74.388-10.145 31.319-8.722 61.916 4.107 88.468 2.381 4.947.297 10.919-4.625 13.303-2.381 1.147-5.08 1.295-7.599.416-2.514-.877-4.528-2.668-5.676-5.052-33.247-68.856 3.789-143.329 49.535-190.064zm55.628 328.491c-38.42 4.899-73.662-22.392-78.565-60.826-2.606-20.57-4.921-38.848-7.128-53.894.843-.317 1.679-.662 2.501-1.058 14.845-7.189 21.103-25.128 13.944-40.002-26.7-55.262 12.468-111.042 32.378-134.209 25.064 17.455 76.931 61.672 64.954 121.827-3.239 16.194 7.3 32.004 23.518 35.247.792.156 1.585.272 2.378.364l6.872 53.967c4.879 38.456-22.417 73.708-60.852 78.584z" fill="#2c3f58" data-original="#000000" style="" class=""/><path d="m156.773 384.287c-.005 0-.009.001-.014.002l-28.877 3.684c-17.14 2.169-29.319 17.892-27.149 35.049 2.003 15.828 15.535 27.429 31.093 27.429 1.308 0 2.632-.083 3.962-.251l28.908-3.685c17.142-2.169 29.321-17.905 27.149-35.077-2.169-17.137-17.904-29.319-35.072-27.151zm5.402 42.387-28.908 3.685c-6.221.79-11.905-3.632-12.691-9.847-.786-6.216 3.617-11.911 9.827-12.697l28.879-3.685c6.229-.787 11.935 3.621 12.719 9.819.789 6.232-3.615 11.94-9.826 12.725z" fill="#2c3f58" data-original="#000000" style="" class=""/><path d="m384.123 387.975-28.887-3.686c-.003 0-.007-.001-.011-.001-17.15-2.17-32.878 10.01-35.044 27.129-1.068 8.289 1.175 16.516 6.318 23.165 5.142 6.648 12.539 10.887 20.818 11.934l28.898 3.687c1.327.168 2.645.25 3.95.25 15.533 0 29.083-11.595 31.125-27.43 2.17-17.156-10.022-32.878-27.167-35.048zm7.326 32.513c-.804 6.229-6.515 10.656-12.714 9.873l-28.897-3.687c-2.981-.377-5.651-1.915-7.518-4.33-1.869-2.416-2.687-5.388-2.299-8.393.724-5.719 5.623-9.91 11.256-9.91.471 0 .947.029 1.427.089l28.897 3.687c6.215.786 10.632 6.481 9.848 12.671z" fill="#2c3f58" data-original="#000000" style="" class=""/><path d="m32.746 86.723c1.429.714 2.947 1.052 4.446 1.052 3.68 0 7.23-2.042 8.986-5.553 2.47-4.94.468-10.948-4.473-13.418-4.94-2.471-10.947-.468-13.417 4.473l-.028.057c-2.47 4.94-.454 10.919 4.486 13.389z" fill="#2c3f58" data-original="#000000" style="" class=""/><path d="m501.952 114.065c-1.723-5.247-7.37-8.102-12.623-6.379-5.247 1.724-8.103 7.376-6.378 12.623 8.307 25.282 11.022 50.913 7.645 72.174-.91 5.746-1.719 11.552-2.501 17.166-1.119 8.034-2.26 16.181-3.741 24.481-10.758-30.325-29.327-59.881-54.206-86.155l2.516-19.826c1.01-7.919-1.132-15.764-6.032-22.092-4.9-6.329-11.964-10.37-19.887-11.378-7.932-1.014-15.795 1.138-22.133 6.055-6.325 4.909-10.352 11.974-11.335 19.861l-2.539 19.837c-28.385 17.781-52.236 39.643-69.911 63.947-.674-9.004-1.21-17.799-1.497-26.285-1.518-45.561 10.43-104.886 40.543-134.718 13.407-13.282 29.554-19.621 47.976-18.83 17.417.735 34.314 8.438 50.222 22.897 4.087 3.715 10.411 3.413 14.127-.674 3.714-4.087 3.412-10.412-.675-14.127-19.193-17.446-40.92-27.155-62.825-28.079-24.212-1.034-45.378 7.243-62.901 24.604-36.756 36.412-47.998 103.342-46.457 149.599.59 17.426 2.159 35.856 3.89 54.78-15.091 31.245-19.657 64.435-13.17 96.964 1.657 8.285 6.614 15.088 13.23 19.33l-7.107 56.006c-3.038 23.836 3.437 47.492 18.235 66.609 14.799 19.119 36.075 31.314 59.903 34.338 3.843.49 7.68.732 11.495.732 19.845 0 39.073-6.562 55.11-18.981 19.116-14.804 31.308-36.078 34.331-59.895l.084-.651c2.975-23.298 5.24-41.024 7.41-55.49 7.317-2.503 13.678-7.797 17.306-15.288 12.048-24.974 16.737-52.328 13.988-80.508 8.101-23.062 11.036-44.02 13.861-64.302.77-5.523 1.565-11.235 2.445-16.792 3.866-24.343.883-53.305-8.399-81.553zm-66.537 312.057c-2.351 18.523-11.846 35.076-26.736 46.607-14.894 11.535-33.299 16.585-51.834 14.221-18.531-2.351-35.084-11.847-46.61-26.738-11.526-14.892-16.574-33.301-14.209-51.843l6.849-53.972c.798-.092 1.597-.207 2.398-.365 16.208-3.241 26.76-19.051 23.523-35.239-12.009-60.167 39.875-104.379 64.949-121.831 19.899 23.171 59.048 78.958 32.384 134.202-7.195 14.861-.953 32.809 13.934 40.019.826.398 1.663.742 2.506 1.058-2.08 14.16-4.26 31.226-7.069 53.222zm26.633-77.608c-1.654 3.415-5.014 5.462-8.558 5.622-.001 0-.003 0-.004 0-1.584.071-3.205-.234-4.726-.965-4.941-2.393-7.017-8.356-4.622-13.303 12.821-26.565 14.236-57.16 4.09-88.479-10.554-32.58-30.575-58.434-45.513-74.385-1.948-2.081-4.612-3.165-7.303-3.165-1.844 0-3.701.509-5.351 1.555-18.465 11.706-44.335 31.728-62.708 60.628-17.662 27.78-23.945 57.756-18.17 86.689 1.075 5.377-2.439 10.629-7.807 11.703-5.376 1.059-10.625-2.45-11.7-7.822-14.953-74.996 39.55-137.808 95.542-171.583 2.615-1.578 4.367-4.264 4.754-7.294l3.151-24.614c.325-2.608 1.658-4.94 3.754-6.566 2.108-1.636 4.721-2.351 7.341-2.016 2.627.334 4.971 1.678 6.601 3.783 1.627 2.101 2.339 4.7 2.004 7.322l-3.118 24.581c-.384 3.032.639 6.073 2.777 8.257 45.748 46.713 82.793 121.175 49.566 190.052z" fill="#2c3f58" data-original="#000000" style="" class=""/><path d="m465.845 82.279c1.749 3.497 5.262 5.508 8.919 5.508 1.509 0 3.042-.342 4.485-1.064 4.94-2.47 6.928-8.506 4.458-13.446-2.471-4.941-8.48-6.943-13.417-4.473-4.941 2.47-6.943 8.477-4.473 13.418z" fill="#2c3f58" data-original="#000000" style="" class=""/></g></g></svg>
