<?xml version="1.0"?>
<svg xmlns="http://www.w3.org/2000/svg" xmlns:xlink="http://www.w3.org/1999/xlink" xmlns:svgjs="http://svgjs.com/svgjs" version="1.1" width="512" height="512" x="0" y="0" viewBox="0 0 512 512" style="enable-background:new 0 0 512 512" xml:space="preserve" class=""><g><path xmlns="http://www.w3.org/2000/svg" d="m258.996094 452h-171.996094c-8.273438 0-15-6.730469-15-15 0-8.273438 6.726562-15 15-15h107c8.28125 0 15-6.71875 15-15 0-8.285156-6.71875-15-15-15h-107c-24.8125 0-45 20.183594-45 45 0 24.8125 20.1875 45 45 45h171.996094c8.273437 0 15 6.730469 15 15 0 8.285156 6.71875 15 15 15 8.285156 0 15-6.714844 15-15 0-24.8125-20.183594-45-45-45zm0 0" fill="#2c3f58" data-original="#000000" style="" class=""/><path xmlns="http://www.w3.org/2000/svg" d="m360.996094 331.996094h-171.976563c-9.191406 0-14-7.550782-14-15.007813 0-7.449219 4.808594-14.988281 14-14.988281h90.980469c8.285156 0 15-6.714844 15-15 0-8.28125-6.714844-15-15-15h-90.980469c-24.671875 0-44 19.761719-44 44.988281 0 25.238281 19.324219 45.007813 44 45.007813h171.976563c8.269531 0 15 6.730468 15 15.003906 0 8.269531-6.730469 15-15 15h-107c-8.28125 0-15 6.714844-15 15s6.71875 15 15 15h107c24.8125 0 45-20.1875 45-45s-20.1875-45.003906-45-45.003906zm0 0" fill="#2c3f58" data-original="#000000" style="" class=""/><path xmlns="http://www.w3.org/2000/svg" d="m465 0h-450c-8.285156 0-15 6.714844-15 15v90c0 24.8125 20.1875 45 45 45h21.761719c4.824219 7.71875 43.113281 68.882812 43.113281 68.882812 8.402344 13.417969 22.304688 21.117188 38.136719 21.117188h183.917969c15.847656 0 29.753906-7.707031 38.15625-21.144531 6.4375-10.300781 40.414062-64.511719 43.136718-68.855469h21.773438c24.8125 0 45-20.1875 45-45v-90c.003906-8.285156-6.714844-15-14.996094-15zm-272 210v-60h94v60zm-57.699219-7.039062s-31.644531-50.546876-33.15625-52.960938h60.855469v60h-14.988281c-5.429688 0-9.828125-2.433594-12.710938-7.039062zm209.347657-.007813c-2.882813 4.609375-7.28125 7.046875-12.71875 7.046875h-14.933594v-60h60.808594c-4.613282 7.351562-26.714844 42.648438-33.15625 52.953125zm105.351562-97.953125c0 8.269531-6.730469 15-15 15h-390c-8.269531 0-15-6.730469-15-15v-75h420zm0 0" fill="#2c3f58" data-original="#000000" style="" class=""/></g></svg>
