<?xml version="1.0"?>
<svg xmlns="http://www.w3.org/2000/svg" xmlns:xlink="http://www.w3.org/1999/xlink" xmlns:svgjs="http://svgjs.com/svgjs" version="1.1" width="512" height="512" x="0" y="0" viewBox="0 0 512 512" style="enable-background:new 0 0 512 512" xml:space="preserve" class=""><g><g xmlns="http://www.w3.org/2000/svg"><path d="m497.003 0h-280.808c-8.282 0-14.997 6.716-14.997 15v482c0 8.284 6.714 15 14.997 15h280.809c8.282 0 14.997-6.716 14.997-15v-482c-.001-8.284-6.715-15-14.998-15zm-14.996 482h-250.816v-452h250.816z" fill="#2c3f58" data-original="#000000" style="" class=""/><path d="m356.599 198.895c33.816 0 61.328-27.518 61.328-61.341 0-33.824-27.511-61.342-61.328-61.342s-61.328 27.518-61.328 61.342c0 33.823 27.512 61.341 61.328 61.341zm0-92.684c17.278 0 31.335 14.06 31.335 31.342s-14.056 31.341-31.335 31.341c-17.278 0-31.335-14.06-31.335-31.341s14.057-31.342 31.335-31.342z" fill="#2c3f58" data-original="#000000" style="" class=""/><path d="m356.599 435.789c48.281 0 87.56-39.289 87.56-87.581s-39.279-87.581-87.56-87.581-87.561 39.289-87.561 87.581 39.28 87.581 87.561 87.581zm0-145.162c31.743 0 57.567 25.831 57.567 57.581s-25.824 57.581-57.567 57.581-57.568-25.831-57.568-57.581 25.825-57.581 57.568-57.581z" fill="#2c3f58" data-original="#000000" style="" class=""/><ellipse cx="356.599" cy="348.17" rx="23.336" ry="23.342" fill="#2c3f58" data-original="#000000" style="" class=""/><path d="m114.712 256.001c0-22.715 9.116-43.789 25.671-59.339 6.038-5.671 6.335-15.164.666-21.203-5.671-6.038-15.161-6.337-21.198-.666-22.656 21.281-35.132 50.121-35.132 81.208.001 31.086 12.479 59.925 35.135 81.205 6.037 5.671 15.528 5.372 21.197-.667 5.67-6.039 5.371-15.532-.667-21.203-16.554-15.547-25.671-36.62-25.672-59.335z" fill="#2c3f58" data-original="#000000" style="" class=""/><path d="m29.993 256c0-35.675 14.318-68.771 40.318-93.193 6.038-5.671 6.335-15.164.666-21.203-5.671-6.039-15.16-6.337-21.198-.666-32.101 30.153-49.78 71.016-49.779 115.063 0 44.046 17.68 84.909 49.781 115.061 6.04 5.672 15.53 5.371 21.198-.667 5.67-6.039 5.371-15.532-.666-21.203-26.001-24.421-40.32-57.517-40.32-93.192z" fill="#2c3f58" data-original="#000000" style="" class=""/></g></g></svg>
