<?xml version="1.0"?>
<svg xmlns="http://www.w3.org/2000/svg" xmlns:xlink="http://www.w3.org/1999/xlink" xmlns:svgjs="http://svgjs.com/svgjs" version="1.1" width="512" height="512" x="0" y="0" viewBox="0 0 512 512" style="enable-background:new 0 0 512 512" xml:space="preserve" class=""><g><g xmlns="http://www.w3.org/2000/svg" id="_13-wake_up_call" data-name="13-wake up call"><g id="linear_color" data-name="linear color"><path d="M376.57,159.875l5.324-7.26L420.6,181.768a12,12,0,0,0,16.8-2.366c12.416-16.484,18.532-34.251,17.69-51.379-.6-12.1-5.1-29.021-21.726-45.6l8.308-11.33A12,12,0,0,0,422.322,56.9l-7.8,10.64c-22.335-13.922-41.435-13.731-54.031-10.775a66.9,66.9,0,0,0-17.446,6.864l-13.008-4.065A19.923,19.923,0,0,1,316,40.48V40A36.04,36.04,0,0,0,280,4H232a36.04,36.04,0,0,0-36,36v.94a19.961,19.961,0,0,1-13.68,18.968l-12.534,4.185a67.136,67.136,0,0,0-18.276-7.324c-12.6-2.956-31.7-3.146-54.031,10.776L89.677,56.9A12,12,0,0,0,70.323,71.1l8.307,11.33C62,99,57.5,115.919,56.905,128.023c-.844,17.128,5.273,34.9,17.688,51.379a12.067,12.067,0,0,0,16.8,2.366l38.708-29.153,5.324,7.26a187.7,187.7,0,0,0-21.8,266.771l-13.4,67C97.892,504.17,110.711,512.255,119.2,505.6l47.946-35.962a187.709,187.709,0,0,0,177.708,0L392.8,505.6c8.491,6.657,21.308-1.434,18.967-11.953l-13.4-67a187.7,187.7,0,0,0-21.8-266.772Zm-10.6-79.741c13.184-3.1,27.32.944,42.009,12.008,29.369,22.12,25.492,46.135,16.738,62.682L343.112,93.359C349.466,87.255,357.025,82.25,365.974,80.134ZM87.279,154.824c-8.753-16.547-12.631-40.562,16.738-62.682,22.766-17.8,46.574-16.984,64.871,1.217Zm62-16.65,44.364-33.414a12,12,0,0,0,2.366-16.8q-2.275-3.022-4.683-5.783A43.918,43.918,0,0,0,220,40.94V40a12.013,12.013,0,0,1,12-12h48a12.013,12.013,0,0,1,12,12v.48a43.806,43.806,0,0,0,28.977,41.351q-2.563,2.917-4.985,6.125a12,12,0,0,0,2.365,16.8l44.365,33.415-5.481,7.474A186.773,186.773,0,0,0,268,116.394V92h4a12,12,0,0,0,0-24H240a12,12,0,0,0,0,24h4v24.394a186.773,186.773,0,0,0-89.241,29.255ZM129.926,467.555l4.119-20.6q5.507,4.7,11.371,8.982ZM92,304c0-90.43,73.57-164,164-164s164,73.57,164,164S346.43,468,256,468,92,394.43,92,304ZM366.584,455.936q5.859-4.276,11.371-8.982l4.119,20.6Z" fill="#2c3f58" data-original="#000000" style="" class=""/><path d="M256,164c-77.2,0-140,62.8-140,140s62.8,140,140,140,140-62.8,140-140S333.2,164,256,164Zm0,256A116,116,0,1,1,372,304,116.132,116.132,0,0,1,256,420Z" fill="#2c3f58" data-original="#000000" style="" class=""/><path d="M278.544,326.71a12.071,12.071,0,0,0-16.972,0l-5.655,5.657a12.013,12.013,0,0,1-16.97,0l-11.315-11.314a12.016,12.016,0,0,1,0-16.971l5.658-5.657a12.069,12.069,0,0,0,0-16.97l-33.942-33.941a12,12,0,0,0-16.971,0L159.75,270.142c-5.409,5.41-12.948,18.326-2.656,44.055,6.67,16.674,19.667,35.181,36.6,52.112C220.43,393.047,248.55,408,269.074,408c8.409,0,15.544-2.51,20.784-7.75l22.627-22.627a12,12,0,0,0,0-16.971Zm-5.656,56.569c-.543.542-5.884,2.259-18.172-2.656-13.724-5.49-29.37-16.6-44.054-31.285s-25.793-30.327-31.284-44.051c-4.917-12.292-3.2-17.632-2.657-18.174l14.142-14.142L207.99,290.1a36.054,36.054,0,0,0,2.672,47.928l11.314,11.313a36.051,36.051,0,0,0,47.926,2.673l17.127,17.126Z" fill="#2c3f58" data-original="#000000" style="" class=""/><path d="M256,284a20.023,20.023,0,0,1,20,20,12,12,0,0,0,24,0,44.049,44.049,0,0,0-44-44,12,12,0,0,0,0,24Z" fill="#2c3f58" data-original="#000000" style="" class=""/><path d="M256,212a12,12,0,0,0,0,24,68.077,68.077,0,0,1,68,68,12,12,0,0,0,24,0A92.1,92.1,0,0,0,256,212Z" fill="#2c3f58" data-original="#000000" style="" class=""/></g></g></g></svg>
