<?xml version="1.0"?>
<svg xmlns="http://www.w3.org/2000/svg" xmlns:xlink="http://www.w3.org/1999/xlink" xmlns:svgjs="http://svgjs.com/svgjs" version="1.1" width="512" height="512" x="0" y="0" viewBox="0 0 511.2 511.2" style="enable-background:new 0 0 512 512" xml:space="preserve" class=""><g><g xmlns="http://www.w3.org/2000/svg"><path d="m478.403 100.006c4.143 0 7.5-3.358 7.5-7.5v-70.006c0-12.406-10.094-22.5-22.5-22.5h-415.606c-12.406 0-22.5 10.094-22.5 22.5v84.903c0 4.142 3.357 7.5 7.5 7.5 4.142 0 7.5-3.358 7.5-7.5v-84.903c0-4.135 3.364-7.5 7.5-7.5h25.418c.39 19.517 2.335 35.162 4.028 46.794 2.266 15.58 5.95 31.165 10.951 46.322 10.016 30.366 24.987 58.549 44.5 83.766 13.776 17.804 29.999 34.032 48.218 48.233 11.943 9.309 24.453 17.041 35.115 23.376 2.5 1.486 5.011 2.942 7.513 4.394 15.957 9.256 31.027 17.999 40.933 32.945.078.117.168.22.251.331v108.91c-9.4-20.232-21.797-39.887-40.917-51.197-12.174-7.202-25.13-12.134-37.659-16.905-11.161-4.25-21.704-8.263-31.768-13.756-26.231-14.318-45.262-35.939-65.409-58.829-14.834-16.853-30.17-34.258-48.673-48.55v-83.43c0-4.142-3.358-7.5-7.5-7.5-4.143 0-7.5 3.358-7.5 7.5v351.296c0 12.407 10.094 22.5 22.5 22.5h415.605c12.406 0 22.5-10.093 22.5-22.5v-366.194c0-4.142-3.357-7.5-7.5-7.5-4.142 0-7.5 3.358-7.5 7.5v55.932c-6.496-6.527-12.337-15.924-17.92-28.737-9.766-22.414-13.549-50.4-16.589-72.886-.547-4.048-.938-8.247-1.315-12.309-.645-6.937-1.312-14.109-2.792-21.269-1.304-6.304-3.639-11.854-5.896-17.222-1.589-3.777-3.112-7.396-4.149-11.014h41.162c4.136 0 7.5 3.365 7.5 7.5v70.006c-.001 4.141 3.356 7.499 7.499 7.499zm-7.5 281.783c-31.79 5.577-67.352 30.601-67.886 114.411h-18.049c.833-2.347 1.29-4.871 1.29-7.5v-255.111c4.187 1.492 8.522 2.084 12.548 2.629 6.22.842 11.592 1.569 15.85 5.036 7.562 6.156 13.758 16.387 19.75 26.28 2.356 3.892 4.794 7.916 7.309 11.685 7.99 11.978 16.89 20.186 29.188 26.82zm-118.644 114.411c-.167-.938-5.678-27.752-8.688-39.216-6.465-24.63-13.645-42.496-22.592-56.225-10.092-15.484-22.804-32.018-41.257-39.75v-110.807c22.415 4.213 34.749 32.549 45.664 57.638 4.121 9.473 8.014 18.42 12.282 25.666 9.448 16.039 21.89 30.693 33.589 39.648v115.546c0 4.136-3.364 7.5-7.5 7.5zm-72.536-7.5v-110.896c11.895 7.147 21.079 19.467 28.69 31.146 8.043 12.341 14.605 28.814 20.65 51.843 2.908 11.081 7.649 34.18 7.905 35.407h-58.535c.833-2.347 1.29-4.871 1.29-7.5zm91.535-296.95c-13.098-4.42-24.938-17.077-28.555-26.035-6.725-16.659-3.021-40.261 8.616-54.901 3.894-4.899 12.533-12.765 19.939-16.105zm0-169.25v56.403c-16.492 4.006-31.515 22.369-31.681 22.577-14.979 18.845-19.515 48.22-10.783 69.85 5.222 12.934 22.368 31.422 42.464 35.969v145.821c-7.358-7.468-14.64-17-20.665-27.228-3.803-6.456-7.519-14.995-11.451-24.036-12.18-27.996-27.336-62.825-59.419-66.832v-212.524c0-2.629-.458-5.153-1.29-7.5h85.325c4.136 0 7.5 3.365 7.5 7.5zm-114.035-7.5c4.136 0 7.5 3.365 7.5 7.5v118.983c-24.479-1.13-46.683-8.449-66.073-21.838-18.679-12.897-31.757-33.486-36.827-57.973-.307-1.482-.651-3.067-1.014-4.734-2.732-12.554-6.862-31.525-1.011-40.948.199-.321.362-.653.508-.99h96.917zm-26.156 239.91c-2.458-1.426-4.923-2.855-7.378-4.314-10.26-6.096-22.27-13.515-33.555-22.311-17.232-13.432-32.566-28.768-45.577-45.583-18.467-23.866-32.638-50.541-42.119-79.286-4.729-14.332-8.211-29.062-10.352-43.782-1.719-11.814-3.491-26.258-3.867-44.634h55.671c-4.515 13.966-.669 31.664 2.262 45.128.352 1.614.686 3.15.982 4.585 5.855 28.283 21.124 52.175 42.992 67.275 21.937 15.147 47.004 23.37 74.597 24.514v121.613c-10.149-9.561-22.038-16.465-33.656-23.205zm-190.77 233.79v-143.356c11.412 4.873 25.508 33.653 25.508 33.653 7.623 15.454 18.993 26.328 29.99 36.843 5.262 5.032 10.703 10.236 15.618 15.855 8.551 9.776 16.205 21.351 22.751 34.402 1.053 2.099 11.703 22.177 12.399 30.103h-98.766c-4.135 0-7.5-3.364-7.5-7.5zm121.3 7.5c-.658-11.519-13.049-34.884-14.024-36.827-7.115-14.187-15.481-26.821-24.868-37.553-5.355-6.123-11.043-11.561-16.543-16.821-10.518-10.058-20.452-19.559-26.903-32.638l-1.293-2.634c-7.751-15.832-17.26-35.223-37.668-40.161v-89.292c13.544 11.911 25.641 25.645 37.413 39.019 20.121 22.86 40.927 46.499 69.482 62.085 10.959 5.981 22.478 10.367 33.617 14.608 12.49 4.755 24.288 9.247 35.359 15.796 23.809 14.085 35.824 45.026 46.425 72.326.717 1.848 1.426 3.669 2.129 5.466v39.126c0 4.136-3.364 7.5-7.5 7.5zm301.806 0h-45.376c.201-29.639 5.038-53.181 14.415-69.994 8.888-15.937 21.519-25.498 38.462-29.124v91.618c-.001 4.136-3.365 7.5-7.501 7.5zm-50.839-464.369c2.07 4.922 4.025 9.57 5.033 14.443 1.311 6.342 1.911 12.791 2.546 19.619.392 4.215.797 8.573 1.386 12.931 3.165 23.408 7.103 52.541 17.702 76.868 9.027 20.717 19.151 34.111 31.672 41.842v90.928c-6.547-4.608-11.758-10.145-16.71-17.569-2.333-3.496-4.579-7.205-6.957-11.131-6.653-10.985-13.534-22.345-23.109-30.141-7.532-6.133-16.28-7.316-23.309-8.268-5.577-.755-10.393-1.406-13.436-4.098-.354-.313-.732-.582-1.123-.816v-193.939c0-2.629-.457-5.153-1.29-7.5h21.85c1.236 6.077 3.52 11.543 5.745 16.831z" fill="#2c3f58" data-original="#000000" style="" class=""/></g></g></svg>
